<svg class="rich-terminal" viewBox="0 0 1434 904.0" xmlns="http://www.w3.org/2000/svg">
    <!-- Generated with Rich https://www.textualize.io -->
    <style>

    @font-face {
        font-family: "Fira Code";
        src: local("FiraCode-Regular"),
                url("https://cdnjs.cloudflare.com/ajax/libs/firacode/6.2.0/woff2/FiraCode-Regular.woff2") format("woff2"),
                url("https://cdnjs.cloudflare.com/ajax/libs/firacode/6.2.0/woff/FiraCode-Regular.woff") format("woff");
        font-style: normal;
        font-weight: 400;
    }
    @font-face {
        font-family: "Fira Code";
        src: local("FiraCode-Bold"),
                url("https://cdnjs.cloudflare.com/ajax/libs/firacode/6.2.0/woff2/FiraCode-Bold.woff2") format("woff2"),
                url("https://cdnjs.cloudflare.com/ajax/libs/firacode/6.2.0/woff/FiraCode-Bold.woff") format("woff");
        font-style: bold;
        font-weight: 700;
    }

    .terminal-2584340764-matrix {
        font-family: Fira Code, monospace;
        font-size: 20px;
        line-height: 24.4px;
        font-variant-east-asian: full-width;
    }

    .terminal-2584340764-title {
        font-size: 18px;
        font-weight: bold;
        font-family: arial;
    }

    .terminal-2584340764-r1 { fill: #c5c8c6 }
.terminal-2584340764-r2 { fill: #e0e0e0;font-weight: bold }
.terminal-2584340764-r3 { fill: #2794fd;font-weight: bold }
.terminal-2584340764-r4 { fill: #ffffff }
.terminal-2584340764-r5 { fill: #0000ff }
.terminal-2584340764-r6 { fill: #af00ff }
.terminal-2584340764-r7 { fill: #e0e0e0 }
.terminal-2584340764-r8 { fill: #58d1eb;font-weight: bold;font-style: italic; }
.terminal-2584340764-r9 { fill: #fd971f;font-weight: bold;font-style: italic; }
.terminal-2584340764-r10 { fill: #9e9e9e;font-weight: bold;font-style: italic; }
.terminal-2584340764-r11 { fill: #f5e5e9;font-weight: bold }
    </style>

    <defs>
    <clipPath id="terminal-2584340764-clip-terminal">
      <rect x="0" y="0" width="1414.1999999999998" height="853.0" />
    </clipPath>
    <clipPath id="terminal-2584340764-line-0">
    <rect x="0" y="1.5" width="1415.2" height="24.65"/>
            </clipPath>
<clipPath id="terminal-2584340764-line-1">
    <rect x="0" y="25.9" width="1415.2" height="24.65"/>
            </clipPath>
<clipPath id="terminal-2584340764-line-2">
    <rect x="0" y="50.3" width="1415.2" height="24.65"/>
            </clipPath>
<clipPath id="terminal-2584340764-line-3">
    <rect x="0" y="74.7" width="1415.2" height="24.65"/>
            </clipPath>
<clipPath id="terminal-2584340764-line-4">
    <rect x="0" y="99.1" width="1415.2" height="24.65"/>
            </clipPath>
<clipPath id="terminal-2584340764-line-5">
    <rect x="0" y="123.5" width="1415.2" height="24.65"/>
            </clipPath>
<clipPath id="terminal-2584340764-line-6">
    <rect x="0" y="147.9" width="1415.2" height="24.65"/>
            </clipPath>
<clipPath id="terminal-2584340764-line-7">
    <rect x="0" y="172.3" width="1415.2" height="24.65"/>
            </clipPath>
<clipPath id="terminal-2584340764-line-8">
    <rect x="0" y="196.7" width="1415.2" height="24.65"/>
            </clipPath>
<clipPath id="terminal-2584340764-line-9">
    <rect x="0" y="221.1" width="1415.2" height="24.65"/>
            </clipPath>
<clipPath id="terminal-2584340764-line-10">
    <rect x="0" y="245.5" width="1415.2" height="24.65"/>
            </clipPath>
<clipPath id="terminal-2584340764-line-11">
    <rect x="0" y="269.9" width="1415.2" height="24.65"/>
            </clipPath>
<clipPath id="terminal-2584340764-line-12">
    <rect x="0" y="294.3" width="1415.2" height="24.65"/>
            </clipPath>
<clipPath id="terminal-2584340764-line-13">
    <rect x="0" y="318.7" width="1415.2" height="24.65"/>
            </clipPath>
<clipPath id="terminal-2584340764-line-14">
    <rect x="0" y="343.1" width="1415.2" height="24.65"/>
            </clipPath>
<clipPath id="terminal-2584340764-line-15">
    <rect x="0" y="367.5" width="1415.2" height="24.65"/>
            </clipPath>
<clipPath id="terminal-2584340764-line-16">
    <rect x="0" y="391.9" width="1415.2" height="24.65"/>
            </clipPath>
<clipPath id="terminal-2584340764-line-17">
    <rect x="0" y="416.3" width="1415.2" height="24.65"/>
            </clipPath>
<clipPath id="terminal-2584340764-line-18">
    <rect x="0" y="440.7" width="1415.2" height="24.65"/>
            </clipPath>
<clipPath id="terminal-2584340764-line-19">
    <rect x="0" y="465.1" width="1415.2" height="24.65"/>
            </clipPath>
<clipPath id="terminal-2584340764-line-20">
    <rect x="0" y="489.5" width="1415.2" height="24.65"/>
            </clipPath>
<clipPath id="terminal-2584340764-line-21">
    <rect x="0" y="513.9" width="1415.2" height="24.65"/>
            </clipPath>
<clipPath id="terminal-2584340764-line-22">
    <rect x="0" y="538.3" width="1415.2" height="24.65"/>
            </clipPath>
<clipPath id="terminal-2584340764-line-23">
    <rect x="0" y="562.7" width="1415.2" height="24.65"/>
            </clipPath>
<clipPath id="terminal-2584340764-line-24">
    <rect x="0" y="587.1" width="1415.2" height="24.65"/>
            </clipPath>
<clipPath id="terminal-2584340764-line-25">
    <rect x="0" y="611.5" width="1415.2" height="24.65"/>
            </clipPath>
<clipPath id="terminal-2584340764-line-26">
    <rect x="0" y="635.9" width="1415.2" height="24.65"/>
            </clipPath>
<clipPath id="terminal-2584340764-line-27">
    <rect x="0" y="660.3" width="1415.2" height="24.65"/>
            </clipPath>
<clipPath id="terminal-2584340764-line-28">
    <rect x="0" y="684.7" width="1415.2" height="24.65"/>
            </clipPath>
<clipPath id="terminal-2584340764-line-29">
    <rect x="0" y="709.1" width="1415.2" height="24.65"/>
            </clipPath>
<clipPath id="terminal-2584340764-line-30">
    <rect x="0" y="733.5" width="1415.2" height="24.65"/>
            </clipPath>
<clipPath id="terminal-2584340764-line-31">
    <rect x="0" y="757.9" width="1415.2" height="24.65"/>
            </clipPath>
<clipPath id="terminal-2584340764-line-32">
    <rect x="0" y="782.3" width="1415.2" height="24.65"/>
            </clipPath>
<clipPath id="terminal-2584340764-line-33">
    <rect x="0" y="806.7" width="1415.2" height="24.65"/>
            </clipPath>
    </defs>

    <rect fill="#292929" stroke="rgba(255,255,255,0.35)" stroke-width="1" x="1" y="1" width="1432" height="902" rx="8"/><text class="terminal-2584340764-title" fill="#c5c8c6" text-anchor="middle" x="716" y="27">termapy</text>
            <g transform="translate(26,22)">
            <circle cx="0" cy="0" r="7" fill="#ff5f57"/>
            <circle cx="22" cy="0" r="7" fill="#febc2e"/>
            <circle cx="44" cy="0" r="7" fill="#28c840"/>
            </g>
        
    <g transform="translate(9, 41)" clip-path="url(#terminal-2584340764-clip-terminal)">
    <rect fill="#0000ff" x="0" y="1.5" width="12.2" height="24.65" shape-rendering="crispEdges"/><rect fill="#0178d4" x="12.2" y="1.5" width="12.2" height="24.65" shape-rendering="crispEdges"/><rect fill="#0178d4" x="24.4" y="1.5" width="36.6" height="24.65" shape-rendering="crispEdges"/><rect fill="#0178d4" x="61" y="1.5" width="12.2" height="24.65" shape-rendering="crispEdges"/><rect fill="#0000ff" x="73.2" y="1.5" width="12.2" height="24.65" shape-rendering="crispEdges"/><rect fill="#1e90ff" x="85.4" y="1.5" width="12.2" height="24.65" shape-rendering="crispEdges"/><rect fill="#1e90ff" x="97.6" y="1.5" width="61" height="24.65" shape-rendering="crispEdges"/><rect fill="#1e90ff" x="158.6" y="1.5" width="12.2" height="24.65" shape-rendering="crispEdges"/><rect fill="#0000ff" x="170.8" y="1.5" width="12.2" height="24.65" shape-rendering="crispEdges"/><rect fill="#2794fd" x="183" y="1.5" width="12.2" height="24.65" shape-rendering="crispEdges"/><rect fill="#e0e0e0" x="195.2" y="1.5" width="61" height="24.65" shape-rendering="crispEdges"/><rect fill="#2794fd" x="256.2" y="1.5" width="12.2" height="24.65" shape-rendering="crispEdges"/><rect fill="#0000ff" x="268.4" y="1.5" width="12.2" height="24.65" shape-rendering="crispEdges"/><rect fill="#1e90ff" x="280.6" y="1.5" width="12.2" height="24.65" shape-rendering="crispEdges"/><rect fill="#1e90ff" x="292.8" y="1.5" width="85.4" height="24.65" shape-rendering="crispEdges"/><rect fill="#1e90ff" x="378.2" y="1.5" width="12.2" height="24.65" shape-rendering="crispEdges"/><rect fill="#0000ff" x="390.4" y="1.5" width="0" height="24.65" shape-rendering="crispEdges"/><rect fill="#0000ff" x="390.4" y="1.5" width="146.4" height="24.65" shape-rendering="crispEdges"/><rect fill="#0000ff" x="536.8" y="1.5" width="12.2" height="24.65" shape-rendering="crispEdges"/><rect fill="#008000" x="549" y="1.5" width="12.2" height="24.65" shape-rendering="crispEdges"/><rect fill="#008000" x="561.2" y="1.5" width="48.8" height="24.65" shape-rendering="crispEdges"/><rect fill="#008000" x="610" y="1.5" width="158.6" height="24.65" shape-rendering="crispEdges"/><rect fill="#008000" x="768.6" y="1.5" width="61" height="24.65" shape-rendering="crispEdges"/><rect fill="#008000" x="829.6" y="1.5" width="12.2" height="24.65" shape-rendering="crispEdges"/><rect fill="#0000ff" x="841.8" y="1.5" width="0" height="24.65" shape-rendering="crispEdges"/><rect fill="#0000ff" x="841.8" y="1.5" width="146.4" height="24.65" shape-rendering="crispEdges"/><rect fill="#0000ff" x="988.2" y="1.5" width="12.2" height="24.65" shape-rendering="crispEdges"/><rect fill="#008000" x="1000.4" y="1.5" width="12.2" height="24.65" shape-rendering="crispEdges"/><rect fill="#008000" x="1012.6" y="1.5" width="170.8" height="24.65" shape-rendering="crispEdges"/><rect fill="#008000" x="1183.4" y="1.5" width="12.2" height="24.65" shape-rendering="crispEdges"/><rect fill="#008000" x="1195.6" y="1.5" width="12.2" height="24.65" shape-rendering="crispEdges"/><rect fill="#0000ff" x="1207.8" y="1.5" width="12.2" height="24.65" shape-rendering="crispEdges"/><rect fill="#008000" x="1220" y="1.5" width="12.2" height="24.65" shape-rendering="crispEdges"/><rect fill="#008000" x="1232.2" y="1.5" width="170.8" height="24.65" shape-rendering="crispEdges"/><rect fill="#008000" x="1403" y="1.5" width="12.2" height="24.65" shape-rendering="crispEdges"/><rect fill="#1e1e1e" x="0" y="25.9" width="12.2" height="24.65" shape-rendering="crispEdges"/><rect fill="#1e1e1e" x="12.2" y="25.9" width="1390.8" height="24.65" shape-rendering="crispEdges"/><rect fill="#1e1e1e" x="1403" y="25.9" width="12.2" height="24.65" shape-rendering="crispEdges"/><rect fill="#1e1e1e" x="0" y="50.3" width="12.2" height="24.65" shape-rendering="crispEdges"/><rect fill="#1e1e1e" x="12.2" y="50.3" width="305" height="24.65" shape-rendering="crispEdges"/><rect fill="#1e1e1e" x="317.2" y="50.3" width="1073.6" height="24.65" shape-rendering="crispEdges"/><rect fill="#000000" x="1390.8" y="50.3" width="12.2" height="24.65" shape-rendering="crispEdges"/><rect fill="#1e1e1e" x="1403" y="50.3" width="12.2" height="24.65" shape-rendering="crispEdges"/><rect fill="#1e1e1e" x="0" y="74.7" width="12.2" height="24.65" shape-rendering="crispEdges"/><rect fill="#1e1e1e" x="12.2" y="74.7" width="317.2" height="24.65" shape-rendering="crispEdges"/><rect fill="#1e1e1e" x="329.4" y="74.7" width="1061.4" height="24.65" shape-rendering="crispEdges"/><rect fill="#000000" x="1390.8" y="74.7" width="12.2" height="24.65" shape-rendering="crispEdges"/><rect fill="#1e1e1e" x="1403" y="74.7" width="12.2" height="24.65" shape-rendering="crispEdges"/><rect fill="#1e1e1e" x="0" y="99.1" width="12.2" height="24.65" shape-rendering="crispEdges"/><rect fill="#1e1e1e" x="12.2" y="99.1" width="170.8" height="24.65" shape-rendering="crispEdges"/><rect fill="#1e1e1e" x="183" y="99.1" width="1207.8" height="24.65" shape-rendering="crispEdges"/><rect fill="#000000" x="1390.8" y="99.1" width="12.2" height="24.65" shape-rendering="crispEdges"/><rect fill="#1e1e1e" x="1403" y="99.1" width="12.2" height="24.65" shape-rendering="crispEdges"/><rect fill="#1e1e1e" x="0" y="123.5" width="12.2" height="24.65" shape-rendering="crispEdges"/><rect fill="#1e1e1e" x="12.2" y="123.5" width="951.6" height="24.65" shape-rendering="crispEdges"/><rect fill="#1e1e1e" x="963.8" y="123.5" width="427" height="24.65" shape-rendering="crispEdges"/><rect fill="#000000" x="1390.8" y="123.5" width="12.2" height="24.65" shape-rendering="crispEdges"/><rect fill="#1e1e1e" x="1403" y="123.5" width="12.2" height="24.65" shape-rendering="crispEdges"/><rect fill="#1e1e1e" x="0" y="147.9" width="12.2" height="24.65" shape-rendering="crispEdges"/><rect fill="#1e1e1e" x="12.2" y="147.9" width="927.2" height="24.65" shape-rendering="crispEdges"/><rect fill="#1e1e1e" x="939.4" y="147.9" width="451.4" height="24.65" shape-rendering="crispEdges"/><rect fill="#000000" x="1390.8" y="147.9" width="12.2" height="24.65" shape-rendering="crispEdges"/><rect fill="#1e1e1e" x="1403" y="147.9" width="12.2" height="24.65" shape-rendering="crispEdges"/><rect fill="#1e1e1e" x="0" y="172.3" width="12.2" height="24.65" shape-rendering="crispEdges"/><rect fill="#1e1e1e" x="12.2" y="172.3" width="219.6" height="24.65" shape-rendering="crispEdges"/><rect fill="#1e1e1e" x="231.8" y="172.3" width="1159" height="24.65" shape-rendering="crispEdges"/><rect fill="#000000" x="1390.8" y="172.3" width="12.2" height="24.65" shape-rendering="crispEdges"/><rect fill="#1e1e1e" x="1403" y="172.3" width="12.2" height="24.65" shape-rendering="crispEdges"/><rect fill="#1e1e1e" x="0" y="196.7" width="12.2" height="24.65" shape-rendering="crispEdges"/><rect fill="#1e1e1e" x="12.2" y="196.7" width="1378.6" height="24.65" shape-rendering="crispEdges"/><rect fill="#000000" x="1390.8" y="196.7" width="12.2" height="24.65" shape-rendering="crispEdges"/><rect fill="#1e1e1e" x="1403" y="196.7" width="12.2" height="24.65" shape-rendering="crispEdges"/><rect fill="#1e1e1e" x="0" y="221.1" width="12.2" height="24.65" shape-rendering="crispEdges"/><rect fill="#1e1e1e" x="12.2" y="221.1" width="1378.6" height="24.65" shape-rendering="crispEdges"/><rect fill="#000000" x="1390.8" y="221.1" width="12.2" height="24.65" shape-rendering="crispEdges"/><rect fill="#1e1e1e" x="1403" y="221.1" width="12.2" height="24.65" shape-rendering="crispEdges"/><rect fill="#1e1e1e" x="0" y="245.5" width="12.2" height="24.65" shape-rendering="crispEdges"/><rect fill="#1e1e1e" x="12.2" y="245.5" width="1378.6" height="24.65" shape-rendering="crispEdges"/><rect fill="#000000" x="1390.8" y="245.5" width="12.2" height="24.65" shape-rendering="crispEdges"/><rect fill="#1e1e1e" x="1403" y="245.5" width="12.2" height="24.65" shape-rendering="crispEdges"/><rect fill="#1e1e1e" x="0" y="269.9" width="12.2" height="24.65" shape-rendering="crispEdges"/><rect fill="#1e1e1e" x="12.2" y="269.9" width="1378.6" height="24.65" shape-rendering="crispEdges"/><rect fill="#000000" x="1390.8" y="269.9" width="12.2" height="24.65" shape-rendering="crispEdges"/><rect fill="#1e1e1e" x="1403" y="269.9" width="12.2" height="24.65" shape-rendering="crispEdges"/><rect fill="#1e1e1e" x="0" y="294.3" width="12.2" height="24.65" shape-rendering="crispEdges"/><rect fill="#1e1e1e" x="12.2" y="294.3" width="1378.6" height="24.65" shape-rendering="crispEdges"/><rect fill="#000000" x="1390.8" y="294.3" width="12.2" height="24.65" shape-rendering="crispEdges"/><rect fill="#1e1e1e" x="1403" y="294.3" width="12.2" height="24.65" shape-rendering="crispEdges"/><rect fill="#1e1e1e" x="0" y="318.7" width="12.2" height="24.65" shape-rendering="crispEdges"/><rect fill="#1e1e1e" x="12.2" y="318.7" width="1378.6" height="24.65" shape-rendering="crispEdges"/><rect fill="#000000" x="1390.8" y="318.7" width="12.2" height="24.65" shape-rendering="crispEdges"/><rect fill="#1e1e1e" x="1403" y="318.7" width="12.2" height="24.65" shape-rendering="crispEdges"/><rect fill="#1e1e1e" x="0" y="343.1" width="12.2" height="24.65" shape-rendering="crispEdges"/><rect fill="#1e1e1e" x="12.2" y="343.1" width="1378.6" height="24.65" shape-rendering="crispEdges"/><rect fill="#000000" x="1390.8" y="343.1" width="12.2" height="24.65" shape-rendering="crispEdges"/><rect fill="#1e1e1e" x="1403" y="343.1" width="12.2" height="24.65" shape-rendering="crispEdges"/><rect fill="#1e1e1e" x="0" y="367.5" width="12.2" height="24.65" shape-rendering="crispEdges"/><rect fill="#1e1e1e" x="12.2" y="367.5" width="1378.6" height="24.65" shape-rendering="crispEdges"/><rect fill="#000000" x="1390.8" y="367.5" width="12.2" height="24.65" shape-rendering="crispEdges"/><rect fill="#1e1e1e" x="1403" y="367.5" width="12.2" height="24.65" shape-rendering="crispEdges"/><rect fill="#1e1e1e" x="0" y="391.9" width="12.2" height="24.65" shape-rendering="crispEdges"/><rect fill="#1e1e1e" x="12.2" y="391.9" width="1378.6" height="24.65" shape-rendering="crispEdges"/><rect fill="#000000" x="1390.8" y="391.9" width="12.2" height="24.65" shape-rendering="crispEdges"/><rect fill="#1e1e1e" x="1403" y="391.9" width="12.2" height="24.65" shape-rendering="crispEdges"/><rect fill="#1e1e1e" x="0" y="416.3" width="12.2" height="24.65" shape-rendering="crispEdges"/><rect fill="#1e1e1e" x="12.2" y="416.3" width="1378.6" height="24.65" shape-rendering="crispEdges"/><rect fill="#000000" x="1390.8" y="416.3" width="12.2" height="24.65" shape-rendering="crispEdges"/><rect fill="#1e1e1e" x="1403" y="416.3" width="12.2" height="24.65" shape-rendering="crispEdges"/><rect fill="#1e1e1e" x="0" y="440.7" width="12.2" height="24.65" shape-rendering="crispEdges"/><rect fill="#1e1e1e" x="12.2" y="440.7" width="1378.6" height="24.65" shape-rendering="crispEdges"/><rect fill="#000000" x="1390.8" y="440.7" width="12.2" height="24.65" shape-rendering="crispEdges"/><rect fill="#1e1e1e" x="1403" y="440.7" width="12.2" height="24.65" shape-rendering="crispEdges"/><rect fill="#1e1e1e" x="0" y="465.1" width="12.2" height="24.65" shape-rendering="crispEdges"/><rect fill="#1e1e1e" x="12.2" y="465.1" width="1378.6" height="24.65" shape-rendering="crispEdges"/><rect fill="#000000" x="1390.8" y="465.1" width="12.2" height="24.65" shape-rendering="crispEdges"/><rect fill="#1e1e1e" x="1403" y="465.1" width="12.2" height="24.65" shape-rendering="crispEdges"/><rect fill="#1e1e1e" x="0" y="489.5" width="12.2" height="24.65" shape-rendering="crispEdges"/><rect fill="#1e1e1e" x="12.2" y="489.5" width="1378.6" height="24.65" shape-rendering="crispEdges"/><rect fill="#000000" x="1390.8" y="489.5" width="12.2" height="24.65" shape-rendering="crispEdges"/><rect fill="#1e1e1e" x="1403" y="489.5" width="12.2" height="24.65" shape-rendering="crispEdges"/><rect fill="#1e1e1e" x="0" y="513.9" width="12.2" height="24.65" shape-rendering="crispEdges"/><rect fill="#1e1e1e" x="12.2" y="513.9" width="1378.6" height="24.65" shape-rendering="crispEdges"/><rect fill="#000000" x="1390.8" y="513.9" width="12.2" height="24.65" shape-rendering="crispEdges"/><rect fill="#1e1e1e" x="1403" y="513.9" width="12.2" height="24.65" shape-rendering="crispEdges"/><rect fill="#1e1e1e" x="0" y="538.3" width="12.2" height="24.65" shape-rendering="crispEdges"/><rect fill="#1e1e1e" x="12.2" y="538.3" width="1378.6" height="24.65" shape-rendering="crispEdges"/><rect fill="#000000" x="1390.8" y="538.3" width="12.2" height="24.65" shape-rendering="crispEdges"/><rect fill="#1e1e1e" x="1403" y="538.3" width="12.2" height="24.65" shape-rendering="crispEdges"/><rect fill="#1e1e1e" x="0" y="562.7" width="12.2" height="24.65" shape-rendering="crispEdges"/><rect fill="#1e1e1e" x="12.2" y="562.7" width="1378.6" height="24.65" shape-rendering="crispEdges"/><rect fill="#000000" x="1390.8" y="562.7" width="12.2" height="24.65" shape-rendering="crispEdges"/><rect fill="#1e1e1e" x="1403" y="562.7" width="12.2" height="24.65" shape-rendering="crispEdges"/><rect fill="#1e1e1e" x="0" y="587.1" width="12.2" height="24.65" shape-rendering="crispEdges"/><rect fill="#1e1e1e" x="12.2" y="587.1" width="1378.6" height="24.65" shape-rendering="crispEdges"/><rect fill="#000000" x="1390.8" y="587.1" width="12.2" height="24.65" shape-rendering="crispEdges"/><rect fill="#1e1e1e" x="1403" y="587.1" width="12.2" height="24.65" shape-rendering="crispEdges"/><rect fill="#1e1e1e" x="0" y="611.5" width="12.2" height="24.65" shape-rendering="crispEdges"/><rect fill="#1e1e1e" x="12.2" y="611.5" width="1378.6" height="24.65" shape-rendering="crispEdges"/><rect fill="#000000" x="1390.8" y="611.5" width="12.2" height="24.65" shape-rendering="crispEdges"/><rect fill="#1e1e1e" x="1403" y="611.5" width="12.2" height="24.65" shape-rendering="crispEdges"/><rect fill="#1e1e1e" x="0" y="635.9" width="12.2" height="24.65" shape-rendering="crispEdges"/><rect fill="#1e1e1e" x="12.2" y="635.9" width="1378.6" height="24.65" shape-rendering="crispEdges"/><rect fill="#000000" x="1390.8" y="635.9" width="12.2" height="24.65" shape-rendering="crispEdges"/><rect fill="#1e1e1e" x="1403" y="635.9" width="12.2" height="24.65" shape-rendering="crispEdges"/><rect fill="#1e1e1e" x="0" y="660.3" width="12.2" height="24.65" shape-rendering="crispEdges"/><rect fill="#1e1e1e" x="12.2" y="660.3" width="1378.6" height="24.65" shape-rendering="crispEdges"/><rect fill="#000000" x="1390.8" y="660.3" width="12.2" height="24.65" shape-rendering="crispEdges"/><rect fill="#1e1e1e" x="1403" y="660.3" width="12.2" height="24.65" shape-rendering="crispEdges"/><rect fill="#1e1e1e" x="0" y="684.7" width="12.2" height="24.65" shape-rendering="crispEdges"/><rect fill="#1e1e1e" x="12.2" y="684.7" width="1378.6" height="24.65" shape-rendering="crispEdges"/><rect fill="#000000" x="1390.8" y="684.7" width="12.2" height="24.65" shape-rendering="crispEdges"/><rect fill="#1e1e1e" x="1403" y="684.7" width="12.2" height="24.65" shape-rendering="crispEdges"/><rect fill="#1e1e1e" x="0" y="709.1" width="12.2" height="24.65" shape-rendering="crispEdges"/><rect fill="#1e1e1e" x="12.2" y="709.1" width="1378.6" height="24.65" shape-rendering="crispEdges"/><rect fill="#000000" x="1390.8" y="709.1" width="12.2" height="24.65" shape-rendering="crispEdges"/><rect fill="#1e1e1e" x="1403" y="709.1" width="12.2" height="24.65" shape-rendering="crispEdges"/><rect fill="#1e1e1e" x="0" y="733.5" width="12.2" height="24.65" shape-rendering="crispEdges"/><rect fill="#1e1e1e" x="12.2" y="733.5" width="1378.6" height="24.65" shape-rendering="crispEdges"/><rect fill="#000000" x="1390.8" y="733.5" width="12.2" height="24.65" shape-rendering="crispEdges"/><rect fill="#1e1e1e" x="1403" y="733.5" width="12.2" height="24.65" shape-rendering="crispEdges"/><rect fill="#1e1e1e" x="0" y="757.9" width="12.2" height="24.65" shape-rendering="crispEdges"/><rect fill="#1e1e1e" x="12.2" y="757.9" width="1378.6" height="24.65" shape-rendering="crispEdges"/><rect fill="#000000" x="1390.8" y="757.9" width="12.2" height="24.65" shape-rendering="crispEdges"/><rect fill="#1e1e1e" x="1403" y="757.9" width="12.2" height="24.65" shape-rendering="crispEdges"/><rect fill="#1e1e1e" x="0" y="782.3" width="12.2" height="24.65" shape-rendering="crispEdges"/><rect fill="#1e1e1e" x="12.2" y="782.3" width="1378.6" height="24.65" shape-rendering="crispEdges"/><rect fill="#000000" x="1390.8" y="782.3" width="12.2" height="24.65" shape-rendering="crispEdges"/><rect fill="#1e1e1e" x="1403" y="782.3" width="12.2" height="24.65" shape-rendering="crispEdges"/><rect fill="#1e1e1e" x="0" y="806.7" width="12.2" height="24.65" shape-rendering="crispEdges"/><rect fill="#1e1e1e" x="12.2" y="806.7" width="1390.8" height="24.65" shape-rendering="crispEdges"/><rect fill="#1e1e1e" x="1403" y="806.7" width="12.2" height="24.65" shape-rendering="crispEdges"/><rect fill="#121212" x="0" y="831.1" width="341.6" height="24.65" shape-rendering="crispEdges"/><rect fill="#121212" x="341.6" y="831.1" width="988.2" height="24.65" shape-rendering="crispEdges"/><rect fill="#121212" x="1329.8" y="831.1" width="12.2" height="24.65" shape-rendering="crispEdges"/><rect fill="#b93c5b" x="1342" y="831.1" width="73.2" height="24.65" shape-rendering="crispEdges"/>
    <g class="terminal-2584340764-matrix">
    <text class="terminal-2584340764-r2" x="24.4" y="20" textLength="36.6" clip-path="url(#terminal-2584340764-line-0)">&#160;?&#160;</text><text class="terminal-2584340764-r2" x="97.6" y="20" textLength="61" clip-path="url(#terminal-2584340764-line-0)">&#160;Cfg&#160;</text><text class="terminal-2584340764-r3" x="195.2" y="20" textLength="61" clip-path="url(#terminal-2584340764-line-0)">&#160;Run&#160;</text><text class="terminal-2584340764-r2" x="292.8" y="20" textLength="85.4" clip-path="url(#terminal-2584340764-line-0)">&#160;Proto&#160;</text><text class="terminal-2584340764-r2" x="610" y="20" textLength="158.6" clip-path="url(#terminal-2584340764-line-0)">&#160;Demo&#160;Device&#160;</text><text class="terminal-2584340764-r2" x="1012.6" y="20" textLength="170.8" clip-path="url(#terminal-2584340764-line-0)">&#160;[DEMO&#160;115200&#160;</text><text class="terminal-2584340764-r2" x="1232.2" y="20" textLength="170.8" clip-path="url(#terminal-2584340764-line-0)">&#160;&#160;Connected&#160;&#160;&#160;</text><text class="terminal-2584340764-r1" x="1415.2" y="20" textLength="12.2" clip-path="url(#terminal-2584340764-line-0)">
</text><text class="terminal-2584340764-r5" x="0" y="44.4" textLength="12.2" clip-path="url(#terminal-2584340764-line-1)">┌</text><text class="terminal-2584340764-r5" x="12.2" y="44.4" textLength="1390.8" clip-path="url(#terminal-2584340764-line-1)">──────────────────────────────────────────────────────────────────────────────────────────────────────────────────</text><text class="terminal-2584340764-r5" x="1403" y="44.4" textLength="12.2" clip-path="url(#terminal-2584340764-line-1)">┐</text><text class="terminal-2584340764-r1" x="1415.2" y="44.4" textLength="12.2" clip-path="url(#terminal-2584340764-line-1)">
</text><text class="terminal-2584340764-r5" x="0" y="68.8" textLength="12.2" clip-path="url(#terminal-2584340764-line-2)">│</text><text class="terminal-2584340764-r6" x="12.2" y="68.8" textLength="305" clip-path="url(#terminal-2584340764-line-2)">demo&gt;&#160;/proto.send&#160;&quot;rev\r&quot;</text><text class="terminal-2584340764-r5" x="1403" y="68.8" textLength="12.2" clip-path="url(#terminal-2584340764-line-2)">│</text><text class="terminal-2584340764-r1" x="1415.2" y="68.8" textLength="12.2" clip-path="url(#terminal-2584340764-line-2)">
</text><text class="terminal-2584340764-r5" x="0" y="93.2" textLength="12.2" clip-path="url(#terminal-2584340764-line-3)">│</text><text class="terminal-2584340764-r8" x="12.2" y="93.2" textLength="317.2" clip-path="url(#terminal-2584340764-line-3)">&#160;&#160;TX:&#160;72&#160;65&#160;76&#160;0D&#160;&#160;&quot;rev\r&quot;</text><text class="terminal-2584340764-r5" x="1403" y="93.2" textLength="12.2" clip-path="url(#terminal-2584340764-line-3)">│</text><text class="terminal-2584340764-r1" x="1415.2" y="93.2" textLength="12.2" clip-path="url(#terminal-2584340764-line-3)">
</text><text class="terminal-2584340764-r5" x="0" y="117.6" textLength="12.2" clip-path="url(#terminal-2584340764-line-4)">│</text><text class="terminal-2584340764-r9" x="12.2" y="117.6" textLength="170.8" clip-path="url(#terminal-2584340764-line-4)">&#160;&#160;RX&#160;30&#160;bytes:</text><text class="terminal-2584340764-r5" x="1403" y="117.6" textLength="12.2" clip-path="url(#terminal-2584340764-line-4)">│</text><text class="terminal-2584340764-r1" x="1415.2" y="117.6" textLength="12.2" clip-path="url(#terminal-2584340764-line-4)">
</text><text class="terminal-2584340764-r5" x="0" y="142" textLength="12.2" clip-path="url(#terminal-2584340764-line-5)">│</text><text class="terminal-2584340764-r10" x="12.2" y="142" textLength="951.6" clip-path="url(#terminal-2584340764-line-5)">&#160;&#160;&#160;&#160;0000&#160;|&#160;45&#160;52&#160;52&#160;4F&#160;52&#160;3A&#160;20&#160;55&#160;&#160;&#160;6E&#160;6B&#160;6E&#160;6F&#160;77&#160;6E&#160;20&#160;63|&#160;ERROR:&#160;Unknown&#160;c</text><text class="terminal-2584340764-r5" x="1403" y="142" textLength="12.2" clip-path="url(#terminal-2584340764-line-5)">│</text><text class="terminal-2584340764-r1" x="1415.2" y="142" textLength="12.2" clip-path="url(#terminal-2584340764-line-5)">
</text><text class="terminal-2584340764-r5" x="0" y="166.4" textLength="12.2" clip-path="url(#terminal-2584340764-line-6)">│</text><text class="terminal-2584340764-r10" x="12.2" y="166.4" textLength="927.2" clip-path="url(#terminal-2584340764-line-6)">&#160;&#160;&#160;&#160;0010&#160;|&#160;6F&#160;6D&#160;6D&#160;61&#160;6E&#160;64&#160;20&#160;27&#160;&#160;&#160;72&#160;65&#160;76&#160;27&#160;0D&#160;0A&#160;&#160;&#160;&#160;&#160;&#160;|&#160;ommand&#160;&#x27;rev&#x27;..</text><text class="terminal-2584340764-r5" x="1403" y="166.4" textLength="12.2" clip-path="url(#terminal-2584340764-line-6)">│</text><text class="terminal-2584340764-r1" x="1415.2" y="166.4" textLength="12.2" clip-path="url(#terminal-2584340764-line-6)">
</text><text class="terminal-2584340764-r5" x="0" y="190.8" textLength="12.2" clip-path="url(#terminal-2584340764-line-7)">│</text><text class="terminal-2584340764-r10" x="12.2" y="190.8" textLength="219.6" clip-path="url(#terminal-2584340764-line-7)">&#160;&#160;(30&#160;bytes,&#160;58ms)</text><text class="terminal-2584340764-r5" x="1403" y="190.8" textLength="12.2" clip-path="url(#terminal-2584340764-line-7)">│</text><text class="terminal-2584340764-r1" x="1415.2" y="190.8" textLength="12.2" clip-path="url(#terminal-2584340764-line-7)">
</text><text class="terminal-2584340764-r5" x="0" y="215.2" textLength="12.2" clip-path="url(#terminal-2584340764-line-8)">│</text><text class="terminal-2584340764-r5" x="1403" y="215.2" textLength="12.2" clip-path="url(#terminal-2584340764-line-8)">│</text><text class="terminal-2584340764-r1" x="1415.2" y="215.2" textLength="12.2" clip-path="url(#terminal-2584340764-line-8)">
</text><text class="terminal-2584340764-r5" x="0" y="239.6" textLength="12.2" clip-path="url(#terminal-2584340764-line-9)">│</text><text class="terminal-2584340764-r5" x="1403" y="239.6" textLength="12.2" clip-path="url(#terminal-2584340764-line-9)">│</text><text class="terminal-2584340764-r1" x="1415.2" y="239.6" textLength="12.2" clip-path="url(#terminal-2584340764-line-9)">
</text><text class="terminal-2584340764-r5" x="0" y="264" textLength="12.2" clip-path="url(#terminal-2584340764-line-10)">│</text><text class="terminal-2584340764-r5" x="1403" y="264" textLength="12.2" clip-path="url(#terminal-2584340764-line-10)">│</text><text class="terminal-2584340764-r1" x="1415.2" y="264" textLength="12.2" clip-path="url(#terminal-2584340764-line-10)">
</text><text class="terminal-2584340764-r5" x="0" y="288.4" textLength="12.2" clip-path="url(#terminal-2584340764-line-11)">│</text><text class="terminal-2584340764-r5" x="1403" y="288.4" textLength="12.2" clip-path="url(#terminal-2584340764-line-11)">│</text><text class="terminal-2584340764-r1" x="1415.2" y="288.4" textLength="12.2" clip-path="url(#terminal-2584340764-line-11)">
</text><text class="terminal-2584340764-r5" x="0" y="312.8" textLength="12.2" clip-path="url(#terminal-2584340764-line-12)">│</text><text class="terminal-2584340764-r5" x="1403" y="312.8" textLength="12.2" clip-path="url(#terminal-2584340764-line-12)">│</text><text class="terminal-2584340764-r1" x="1415.2" y="312.8" textLength="12.2" clip-path="url(#terminal-2584340764-line-12)">
</text><text class="terminal-2584340764-r5" x="0" y="337.2" textLength="12.2" clip-path="url(#terminal-2584340764-line-13)">│</text><text class="terminal-2584340764-r5" x="1403" y="337.2" textLength="12.2" clip-path="url(#terminal-2584340764-line-13)">│</text><text class="terminal-2584340764-r1" x="1415.2" y="337.2" textLength="12.2" clip-path="url(#terminal-2584340764-line-13)">
</text><text class="terminal-2584340764-r5" x="0" y="361.6" textLength="12.2" clip-path="url(#terminal-2584340764-line-14)">│</text><text class="terminal-2584340764-r5" x="1403" y="361.6" textLength="12.2" clip-path="url(#terminal-2584340764-line-14)">│</text><text class="terminal-2584340764-r1" x="1415.2" y="361.6" textLength="12.2" clip-path="url(#terminal-2584340764-line-14)">
</text><text class="terminal-2584340764-r5" x="0" y="386" textLength="12.2" clip-path="url(#terminal-2584340764-line-15)">│</text><text class="terminal-2584340764-r5" x="1403" y="386" textLength="12.2" clip-path="url(#terminal-2584340764-line-15)">│</text><text class="terminal-2584340764-r1" x="1415.2" y="386" textLength="12.2" clip-path="url(#terminal-2584340764-line-15)">
</text><text class="terminal-2584340764-r5" x="0" y="410.4" textLength="12.2" clip-path="url(#terminal-2584340764-line-16)">│</text><text class="terminal-2584340764-r5" x="1403" y="410.4" textLength="12.2" clip-path="url(#terminal-2584340764-line-16)">│</text><text class="terminal-2584340764-r1" x="1415.2" y="410.4" textLength="12.2" clip-path="url(#terminal-2584340764-line-16)">
</text><text class="terminal-2584340764-r5" x="0" y="434.8" textLength="12.2" clip-path="url(#terminal-2584340764-line-17)">│</text><text class="terminal-2584340764-r5" x="1403" y="434.8" textLength="12.2" clip-path="url(#terminal-2584340764-line-17)">│</text><text class="terminal-2584340764-r1" x="1415.2" y="434.8" textLength="12.2" clip-path="url(#terminal-2584340764-line-17)">
</text><text class="terminal-2584340764-r5" x="0" y="459.2" textLength="12.2" clip-path="url(#terminal-2584340764-line-18)">│</text><text class="terminal-2584340764-r5" x="1403" y="459.2" textLength="12.2" clip-path="url(#terminal-2584340764-line-18)">│</text><text class="terminal-2584340764-r1" x="1415.2" y="459.2" textLength="12.2" clip-path="url(#terminal-2584340764-line-18)">
</text><text class="terminal-2584340764-r5" x="0" y="483.6" textLength="12.2" clip-path="url(#terminal-2584340764-line-19)">│</text><text class="terminal-2584340764-r5" x="1403" y="483.6" textLength="12.2" clip-path="url(#terminal-2584340764-line-19)">│</text><text class="terminal-2584340764-r1" x="1415.2" y="483.6" textLength="12.2" clip-path="url(#terminal-2584340764-line-19)">
</text><text class="terminal-2584340764-r5" x="0" y="508" textLength="12.2" clip-path="url(#terminal-2584340764-line-20)">│</text><text class="terminal-2584340764-r5" x="1403" y="508" textLength="12.2" clip-path="url(#terminal-2584340764-line-20)">│</text><text class="terminal-2584340764-r1" x="1415.2" y="508" textLength="12.2" clip-path="url(#terminal-2584340764-line-20)">
</text><text class="terminal-2584340764-r5" x="0" y="532.4" textLength="12.2" clip-path="url(#terminal-2584340764-line-21)">│</text><text class="terminal-2584340764-r5" x="1403" y="532.4" textLength="12.2" clip-path="url(#terminal-2584340764-line-21)">│</text><text class="terminal-2584340764-r1" x="1415.2" y="532.4" textLength="12.2" clip-path="url(#terminal-2584340764-line-21)">
</text><text class="terminal-2584340764-r5" x="0" y="556.8" textLength="12.2" clip-path="url(#terminal-2584340764-line-22)">│</text><text class="terminal-2584340764-r5" x="1403" y="556.8" textLength="12.2" clip-path="url(#terminal-2584340764-line-22)">│</text><text class="terminal-2584340764-r1" x="1415.2" y="556.8" textLength="12.2" clip-path="url(#terminal-2584340764-line-22)">
</text><text class="terminal-2584340764-r5" x="0" y="581.2" textLength="12.2" clip-path="url(#terminal-2584340764-line-23)">│</text><text class="terminal-2584340764-r5" x="1403" y="581.2" textLength="12.2" clip-path="url(#terminal-2584340764-line-23)">│</text><text class="terminal-2584340764-r1" x="1415.2" y="581.2" textLength="12.2" clip-path="url(#terminal-2584340764-line-23)">
</text><text class="terminal-2584340764-r5" x="0" y="605.6" textLength="12.2" clip-path="url(#terminal-2584340764-line-24)">│</text><text class="terminal-2584340764-r5" x="1403" y="605.6" textLength="12.2" clip-path="url(#terminal-2584340764-line-24)">│</text><text class="terminal-2584340764-r1" x="1415.2" y="605.6" textLength="12.2" clip-path="url(#terminal-2584340764-line-24)">
</text><text class="terminal-2584340764-r5" x="0" y="630" textLength="12.2" clip-path="url(#terminal-2584340764-line-25)">│</text><text class="terminal-2584340764-r5" x="1403" y="630" textLength="12.2" clip-path="url(#terminal-2584340764-line-25)">│</text><text class="terminal-2584340764-r1" x="1415.2" y="630" textLength="12.2" clip-path="url(#terminal-2584340764-line-25)">
</text><text class="terminal-2584340764-r5" x="0" y="654.4" textLength="12.2" clip-path="url(#terminal-2584340764-line-26)">│</text><text class="terminal-2584340764-r5" x="1403" y="654.4" textLength="12.2" clip-path="url(#terminal-2584340764-line-26)">│</text><text class="terminal-2584340764-r1" x="1415.2" y="654.4" textLength="12.2" clip-path="url(#terminal-2584340764-line-26)">
</text><text class="terminal-2584340764-r5" x="0" y="678.8" textLength="12.2" clip-path="url(#terminal-2584340764-line-27)">│</text><text class="terminal-2584340764-r5" x="1403" y="678.8" textLength="12.2" clip-path="url(#terminal-2584340764-line-27)">│</text><text class="terminal-2584340764-r1" x="1415.2" y="678.8" textLength="12.2" clip-path="url(#terminal-2584340764-line-27)">
</text><text class="terminal-2584340764-r5" x="0" y="703.2" textLength="12.2" clip-path="url(#terminal-2584340764-line-28)">│</text><text class="terminal-2584340764-r5" x="1403" y="703.2" textLength="12.2" clip-path="url(#terminal-2584340764-line-28)">│</text><text class="terminal-2584340764-r1" x="1415.2" y="703.2" textLength="12.2" clip-path="url(#terminal-2584340764-line-28)">
</text><text class="terminal-2584340764-r5" x="0" y="727.6" textLength="12.2" clip-path="url(#terminal-2584340764-line-29)">│</text><text class="terminal-2584340764-r5" x="1403" y="727.6" textLength="12.2" clip-path="url(#terminal-2584340764-line-29)">│</text><text class="terminal-2584340764-r1" x="1415.2" y="727.6" textLength="12.2" clip-path="url(#terminal-2584340764-line-29)">
</text><text class="terminal-2584340764-r5" x="0" y="752" textLength="12.2" clip-path="url(#terminal-2584340764-line-30)">│</text><text class="terminal-2584340764-r5" x="1403" y="752" textLength="12.2" clip-path="url(#terminal-2584340764-line-30)">│</text><text class="terminal-2584340764-r1" x="1415.2" y="752" textLength="12.2" clip-path="url(#terminal-2584340764-line-30)">
</text><text class="terminal-2584340764-r5" x="0" y="776.4" textLength="12.2" clip-path="url(#terminal-2584340764-line-31)">│</text><text class="terminal-2584340764-r5" x="1403" y="776.4" textLength="12.2" clip-path="url(#terminal-2584340764-line-31)">│</text><text class="terminal-2584340764-r1" x="1415.2" y="776.4" textLength="12.2" clip-path="url(#terminal-2584340764-line-31)">
</text><text class="terminal-2584340764-r5" x="0" y="800.8" textLength="12.2" clip-path="url(#terminal-2584340764-line-32)">│</text><text class="terminal-2584340764-r5" x="1403" y="800.8" textLength="12.2" clip-path="url(#terminal-2584340764-line-32)">│</text><text class="terminal-2584340764-r1" x="1415.2" y="800.8" textLength="12.2" clip-path="url(#terminal-2584340764-line-32)">
</text><text class="terminal-2584340764-r5" x="0" y="825.2" textLength="12.2" clip-path="url(#terminal-2584340764-line-33)">└</text><text class="terminal-2584340764-r5" x="12.2" y="825.2" textLength="1390.8" clip-path="url(#terminal-2584340764-line-33)">──────────────────────────────────────────────────────────────────────────────────────────────────────────────────</text><text class="terminal-2584340764-r5" x="1403" y="825.2" textLength="12.2" clip-path="url(#terminal-2584340764-line-33)">┘</text><text class="terminal-2584340764-r1" x="1415.2" y="825.2" textLength="12.2" clip-path="url(#terminal-2584340764-line-33)">
</text><text class="terminal-2584340764-r7" x="0" y="849.6" textLength="341.6" clip-path="url(#terminal-2584340764-line-34)">&#160;doc_screenshots.run&#160;[23/50]</text><text class="terminal-2584340764-r11" x="1342" y="849.6" textLength="73.2" clip-path="url(#terminal-2584340764-line-34)">&#160;Stop&#160;</text>
    </g>
    </g>
</svg>
