<svg class="rich-terminal" viewBox="0 0 1434 904.0" xmlns="http://www.w3.org/2000/svg">
    <!-- Generated with Rich https://www.textualize.io -->
    <style>

    @font-face {
        font-family: "Fira Code";
        src: local("FiraCode-Regular"),
                url("https://cdnjs.cloudflare.com/ajax/libs/firacode/6.2.0/woff2/FiraCode-Regular.woff2") format("woff2"),
                url("https://cdnjs.cloudflare.com/ajax/libs/firacode/6.2.0/woff/FiraCode-Regular.woff") format("woff");
        font-style: normal;
        font-weight: 400;
    }
    @font-face {
        font-family: "Fira Code";
        src: local("FiraCode-Bold"),
                url("https://cdnjs.cloudflare.com/ajax/libs/firacode/6.2.0/woff2/FiraCode-Bold.woff2") format("woff2"),
                url("https://cdnjs.cloudflare.com/ajax/libs/firacode/6.2.0/woff/FiraCode-Bold.woff") format("woff");
        font-style: bold;
        font-weight: 700;
    }

    .terminal-3256727132-matrix {
        font-family: Fira Code, monospace;
        font-size: 20px;
        line-height: 24.4px;
        font-variant-east-asian: full-width;
    }

    .terminal-3256727132-title {
        font-size: 18px;
        font-weight: bold;
        font-family: arial;
    }

    .terminal-3256727132-r1 { fill: #e0e0e0 }
.terminal-3256727132-r2 { fill: #646464;font-weight: bold }
.terminal-3256727132-r3 { fill: #707070 }
.terminal-3256727132-r4 { fill: #6e6466;font-weight: bold }
.terminal-3256727132-r5 { fill: #c5c8c6 }
.terminal-3256727132-r6 { fill: #0a0a70 }
.terminal-3256727132-r7 { fill: #646464 }
.terminal-3256727132-r8 { fill: #0a0f13 }
.terminal-3256727132-r9 { fill: #6d7479 }
.terminal-3256727132-r10 { fill: #00ff00 }
.terminal-3256727132-r11 { fill: #e0e0e0;font-weight: bold }
.terminal-3256727132-r12 { fill: #141f27 }
.terminal-3256727132-r13 { fill: #000000 }
.terminal-3256727132-r14 { fill: #121212 }
.terminal-3256727132-r15 { fill: #3b3b3b }
.terminal-3256727132-r16 { fill: #0e1410;font-weight: bold }
.terminal-3256727132-r17 { fill: #4a4a4a }
    </style>

    <defs>
    <clipPath id="terminal-3256727132-clip-terminal">
      <rect x="0" y="0" width="1414.1999999999998" height="853.0" />
    </clipPath>
    <clipPath id="terminal-3256727132-line-0">
    <rect x="0" y="1.5" width="1415.2" height="24.65"/>
            </clipPath>
<clipPath id="terminal-3256727132-line-1">
    <rect x="0" y="25.9" width="1415.2" height="24.65"/>
            </clipPath>
<clipPath id="terminal-3256727132-line-2">
    <rect x="0" y="50.3" width="1415.2" height="24.65"/>
            </clipPath>
<clipPath id="terminal-3256727132-line-3">
    <rect x="0" y="74.7" width="1415.2" height="24.65"/>
            </clipPath>
<clipPath id="terminal-3256727132-line-4">
    <rect x="0" y="99.1" width="1415.2" height="24.65"/>
            </clipPath>
<clipPath id="terminal-3256727132-line-5">
    <rect x="0" y="123.5" width="1415.2" height="24.65"/>
            </clipPath>
<clipPath id="terminal-3256727132-line-6">
    <rect x="0" y="147.9" width="1415.2" height="24.65"/>
            </clipPath>
<clipPath id="terminal-3256727132-line-7">
    <rect x="0" y="172.3" width="1415.2" height="24.65"/>
            </clipPath>
<clipPath id="terminal-3256727132-line-8">
    <rect x="0" y="196.7" width="1415.2" height="24.65"/>
            </clipPath>
<clipPath id="terminal-3256727132-line-9">
    <rect x="0" y="221.1" width="1415.2" height="24.65"/>
            </clipPath>
<clipPath id="terminal-3256727132-line-10">
    <rect x="0" y="245.5" width="1415.2" height="24.65"/>
            </clipPath>
<clipPath id="terminal-3256727132-line-11">
    <rect x="0" y="269.9" width="1415.2" height="24.65"/>
            </clipPath>
<clipPath id="terminal-3256727132-line-12">
    <rect x="0" y="294.3" width="1415.2" height="24.65"/>
            </clipPath>
<clipPath id="terminal-3256727132-line-13">
    <rect x="0" y="318.7" width="1415.2" height="24.65"/>
            </clipPath>
<clipPath id="terminal-3256727132-line-14">
    <rect x="0" y="343.1" width="1415.2" height="24.65"/>
            </clipPath>
<clipPath id="terminal-3256727132-line-15">
    <rect x="0" y="367.5" width="1415.2" height="24.65"/>
            </clipPath>
<clipPath id="terminal-3256727132-line-16">
    <rect x="0" y="391.9" width="1415.2" height="24.65"/>
            </clipPath>
<clipPath id="terminal-3256727132-line-17">
    <rect x="0" y="416.3" width="1415.2" height="24.65"/>
            </clipPath>
<clipPath id="terminal-3256727132-line-18">
    <rect x="0" y="440.7" width="1415.2" height="24.65"/>
            </clipPath>
<clipPath id="terminal-3256727132-line-19">
    <rect x="0" y="465.1" width="1415.2" height="24.65"/>
            </clipPath>
<clipPath id="terminal-3256727132-line-20">
    <rect x="0" y="489.5" width="1415.2" height="24.65"/>
            </clipPath>
<clipPath id="terminal-3256727132-line-21">
    <rect x="0" y="513.9" width="1415.2" height="24.65"/>
            </clipPath>
<clipPath id="terminal-3256727132-line-22">
    <rect x="0" y="538.3" width="1415.2" height="24.65"/>
            </clipPath>
<clipPath id="terminal-3256727132-line-23">
    <rect x="0" y="562.7" width="1415.2" height="24.65"/>
            </clipPath>
<clipPath id="terminal-3256727132-line-24">
    <rect x="0" y="587.1" width="1415.2" height="24.65"/>
            </clipPath>
<clipPath id="terminal-3256727132-line-25">
    <rect x="0" y="611.5" width="1415.2" height="24.65"/>
            </clipPath>
<clipPath id="terminal-3256727132-line-26">
    <rect x="0" y="635.9" width="1415.2" height="24.65"/>
            </clipPath>
<clipPath id="terminal-3256727132-line-27">
    <rect x="0" y="660.3" width="1415.2" height="24.65"/>
            </clipPath>
<clipPath id="terminal-3256727132-line-28">
    <rect x="0" y="684.7" width="1415.2" height="24.65"/>
            </clipPath>
<clipPath id="terminal-3256727132-line-29">
    <rect x="0" y="709.1" width="1415.2" height="24.65"/>
            </clipPath>
<clipPath id="terminal-3256727132-line-30">
    <rect x="0" y="733.5" width="1415.2" height="24.65"/>
            </clipPath>
<clipPath id="terminal-3256727132-line-31">
    <rect x="0" y="757.9" width="1415.2" height="24.65"/>
            </clipPath>
<clipPath id="terminal-3256727132-line-32">
    <rect x="0" y="782.3" width="1415.2" height="24.65"/>
            </clipPath>
<clipPath id="terminal-3256727132-line-33">
    <rect x="0" y="806.7" width="1415.2" height="24.65"/>
            </clipPath>
    </defs>

    <rect fill="#292929" stroke="rgba(255,255,255,0.35)" stroke-width="1" x="1" y="1" width="1432" height="902" rx="8"/><text class="terminal-3256727132-title" fill="#c5c8c6" text-anchor="middle" x="716" y="27">termapy</text>
            <g transform="translate(26,22)">
            <circle cx="0" cy="0" r="7" fill="#ff5f57"/>
            <circle cx="22" cy="0" r="7" fill="#febc2e"/>
            <circle cx="44" cy="0" r="7" fill="#28c840"/>
            </g>
        
    <g transform="translate(9, 41)" clip-path="url(#terminal-3256727132-clip-terminal)">
    <rect fill="#0b3a5f" x="0" y="1.5" width="12.2" height="24.65" shape-rendering="crispEdges"/><rect fill="#0b3a5f" x="12.2" y="1.5" width="73.2" height="24.65" shape-rendering="crispEdges"/><rect fill="#0b3a5f" x="85.4" y="1.5" width="12.2" height="24.65" shape-rendering="crispEdges"/><rect fill="#0a0a70" x="97.6" y="1.5" width="12.2" height="24.65" shape-rendering="crispEdges"/><rect fill="#164470" x="109.8" y="1.5" width="12.2" height="24.65" shape-rendering="crispEdges"/><rect fill="#164470" x="122" y="1.5" width="61" height="24.65" shape-rendering="crispEdges"/><rect fill="#164470" x="183" y="1.5" width="12.2" height="24.65" shape-rendering="crispEdges"/><rect fill="#0a0a70" x="195.2" y="1.5" width="12.2" height="24.65" shape-rendering="crispEdges"/><rect fill="#164470" x="207.4" y="1.5" width="12.2" height="24.65" shape-rendering="crispEdges"/><rect fill="#164470" x="219.6" y="1.5" width="61" height="24.65" shape-rendering="crispEdges"/><rect fill="#164470" x="280.6" y="1.5" width="12.2" height="24.65" shape-rendering="crispEdges"/><rect fill="#0a0a70" x="292.8" y="1.5" width="12.2" height="24.65" shape-rendering="crispEdges"/><rect fill="#164470" x="305" y="1.5" width="12.2" height="24.65" shape-rendering="crispEdges"/><rect fill="#164470" x="317.2" y="1.5" width="85.4" height="24.65" shape-rendering="crispEdges"/><rect fill="#164470" x="402.6" y="1.5" width="12.2" height="24.65" shape-rendering="crispEdges"/><rect fill="#0a0a70" x="414.8" y="1.5" width="0" height="24.65" shape-rendering="crispEdges"/><rect fill="#0a0a70" x="414.8" y="1.5" width="73.2" height="24.65" shape-rendering="crispEdges"/><rect fill="#0a0a70" x="488" y="1.5" width="12.2" height="24.65" shape-rendering="crispEdges"/><rect fill="#164470" x="500.2" y="1.5" width="12.2" height="24.65" shape-rendering="crispEdges"/><rect fill="#164470" x="512.4" y="1.5" width="48.8" height="24.65" shape-rendering="crispEdges"/><rect fill="#164470" x="561.2" y="1.5" width="158.6" height="24.65" shape-rendering="crispEdges"/><rect fill="#164470" x="719.8" y="1.5" width="61" height="24.65" shape-rendering="crispEdges"/><rect fill="#164470" x="780.8" y="1.5" width="12.2" height="24.65" shape-rendering="crispEdges"/><rect fill="#0a0a70" x="793" y="1.5" width="0" height="24.65" shape-rendering="crispEdges"/><rect fill="#0a0a70" x="793" y="1.5" width="73.2" height="24.65" shape-rendering="crispEdges"/><rect fill="#0a0a70" x="866.2" y="1.5" width="12.2" height="24.65" shape-rendering="crispEdges"/><rect fill="#0a3e0a" x="878.4" y="1.5" width="12.2" height="24.65" shape-rendering="crispEdges"/><rect fill="#0a3e0a" x="890.6" y="1.5" width="207.4" height="24.65" shape-rendering="crispEdges"/><rect fill="#0a3e0a" x="1098" y="1.5" width="12.2" height="24.65" shape-rendering="crispEdges"/><rect fill="#0a0a70" x="1110.2" y="1.5" width="12.2" height="24.65" shape-rendering="crispEdges"/><rect fill="#0a3e0a" x="1122.4" y="1.5" width="12.2" height="24.65" shape-rendering="crispEdges"/><rect fill="#0a3e0a" x="1134.6" y="1.5" width="170.8" height="24.65" shape-rendering="crispEdges"/><rect fill="#0a3e0a" x="1305.4" y="1.5" width="12.2" height="24.65" shape-rendering="crispEdges"/><rect fill="#0a0a70" x="1317.6" y="1.5" width="12.2" height="24.65" shape-rendering="crispEdges"/><rect fill="#621222" x="1329.8" y="1.5" width="12.2" height="24.65" shape-rendering="crispEdges"/><rect fill="#621222" x="1342" y="1.5" width="61" height="24.65" shape-rendering="crispEdges"/><rect fill="#621222" x="1403" y="1.5" width="12.2" height="24.65" shape-rendering="crispEdges"/><rect fill="#161616" x="0" y="25.9" width="12.2" height="24.65" shape-rendering="crispEdges"/><rect fill="#161616" x="12.2" y="25.9" width="1390.8" height="24.65" shape-rendering="crispEdges"/><rect fill="#161616" x="1403" y="25.9" width="12.2" height="24.65" shape-rendering="crispEdges"/><rect fill="#161616" x="0" y="50.3" width="12.2" height="24.65" shape-rendering="crispEdges"/><rect fill="#161616" x="12.2" y="50.3" width="1378.6" height="24.65" shape-rendering="crispEdges"/><rect fill="#0a0a0a" x="1390.8" y="50.3" width="12.2" height="24.65" shape-rendering="crispEdges"/><rect fill="#161616" x="1403" y="50.3" width="12.2" height="24.65" shape-rendering="crispEdges"/><rect fill="#141f27" x="0" y="74.7" width="12.2" height="24.65" shape-rendering="crispEdges"/><rect fill="#141f27" x="12.2" y="74.7" width="1390.8" height="24.65" shape-rendering="crispEdges"/><rect fill="#141f27" x="1403" y="74.7" width="12.2" height="24.65" shape-rendering="crispEdges"/><rect fill="#141f27" x="0" y="99.1" width="12.2" height="24.65" shape-rendering="crispEdges"/><rect fill="#141f27" x="12.2" y="99.1" width="36.6" height="24.65" shape-rendering="crispEdges"/><rect fill="#141f27" x="48.8" y="99.1" width="244" height="24.65" shape-rendering="crispEdges"/><rect fill="#141f27" x="292.8" y="99.1" width="1110.2" height="24.65" shape-rendering="crispEdges"/><rect fill="#141f27" x="1403" y="99.1" width="12.2" height="24.65" shape-rendering="crispEdges"/><rect fill="#141f27" x="0" y="123.5" width="1415.2" height="24.65" shape-rendering="crispEdges"/><rect fill="#0e395a" x="0" y="147.9" width="24.4" height="24.65" shape-rendering="crispEdges"/><rect fill="#0e395a" x="24.4" y="147.9" width="146.4" height="24.65" shape-rendering="crispEdges"/><rect fill="#0e395a" x="170.8" y="147.9" width="1195.6" height="24.65" shape-rendering="crispEdges"/><rect fill="#0e395a" x="1366.4" y="147.9" width="24.4" height="24.65" shape-rendering="crispEdges"/><rect fill="#003054" x="1390.8" y="147.9" width="24.4" height="24.65" shape-rendering="crispEdges"/><rect fill="#141f27" x="0" y="172.3" width="24.4" height="24.65" shape-rendering="crispEdges"/><rect fill="#141f27" x="24.4" y="172.3" width="244" height="24.65" shape-rendering="crispEdges"/><rect fill="#141f27" x="268.4" y="172.3" width="1098" height="24.65" shape-rendering="crispEdges"/><rect fill="#141f27" x="1366.4" y="172.3" width="24.4" height="24.65" shape-rendering="crispEdges"/><rect fill="#003054" x="1390.8" y="172.3" width="24.4" height="24.65" shape-rendering="crispEdges"/><rect fill="#141f27" x="0" y="196.7" width="24.4" height="24.65" shape-rendering="crispEdges"/><rect fill="#141f27" x="24.4" y="196.7" width="183" height="24.65" shape-rendering="crispEdges"/><rect fill="#141f27" x="207.4" y="196.7" width="1159" height="24.65" shape-rendering="crispEdges"/><rect fill="#141f27" x="1366.4" y="196.7" width="24.4" height="24.65" shape-rendering="crispEdges"/><rect fill="#003054" x="1390.8" y="196.7" width="24.4" height="24.65" shape-rendering="crispEdges"/><rect fill="#141f27" x="0" y="221.1" width="24.4" height="24.65" shape-rendering="crispEdges"/><rect fill="#141f27" x="24.4" y="221.1" width="134.2" height="24.65" shape-rendering="crispEdges"/><rect fill="#141f27" x="158.6" y="221.1" width="1207.8" height="24.65" shape-rendering="crispEdges"/><rect fill="#141f27" x="1366.4" y="221.1" width="24.4" height="24.65" shape-rendering="crispEdges"/><rect fill="#003054" x="1390.8" y="221.1" width="24.4" height="24.65" shape-rendering="crispEdges"/><rect fill="#141f27" x="0" y="245.5" width="24.4" height="24.65" shape-rendering="crispEdges"/><rect fill="#141f27" x="24.4" y="245.5" width="48.8" height="24.65" shape-rendering="crispEdges"/><rect fill="#141f27" x="73.2" y="245.5" width="1293.2" height="24.65" shape-rendering="crispEdges"/><rect fill="#141f27" x="1366.4" y="245.5" width="24.4" height="24.65" shape-rendering="crispEdges"/><rect fill="#003054" x="1390.8" y="245.5" width="24.4" height="24.65" shape-rendering="crispEdges"/><rect fill="#141f27" x="0" y="269.9" width="24.4" height="24.65" shape-rendering="crispEdges"/><rect fill="#141f27" x="24.4" y="269.9" width="256.2" height="24.65" shape-rendering="crispEdges"/><rect fill="#141f27" x="280.6" y="269.9" width="1085.8" height="24.65" shape-rendering="crispEdges"/><rect fill="#141f27" x="1366.4" y="269.9" width="24.4" height="24.65" shape-rendering="crispEdges"/><rect fill="#003054" x="1390.8" y="269.9" width="24.4" height="24.65" shape-rendering="crispEdges"/><rect fill="#141f27" x="0" y="294.3" width="24.4" height="24.65" shape-rendering="crispEdges"/><rect fill="#141f27" x="24.4" y="294.3" width="48.8" height="24.65" shape-rendering="crispEdges"/><rect fill="#141f27" x="73.2" y="294.3" width="1293.2" height="24.65" shape-rendering="crispEdges"/><rect fill="#141f27" x="1366.4" y="294.3" width="24.4" height="24.65" shape-rendering="crispEdges"/><rect fill="#003054" x="1390.8" y="294.3" width="24.4" height="24.65" shape-rendering="crispEdges"/><rect fill="#141f27" x="0" y="318.7" width="24.4" height="24.65" shape-rendering="crispEdges"/><rect fill="#141f27" x="24.4" y="318.7" width="122" height="24.65" shape-rendering="crispEdges"/><rect fill="#141f27" x="146.4" y="318.7" width="1220" height="24.65" shape-rendering="crispEdges"/><rect fill="#141f27" x="1366.4" y="318.7" width="24.4" height="24.65" shape-rendering="crispEdges"/><rect fill="#003054" x="1390.8" y="318.7" width="24.4" height="24.65" shape-rendering="crispEdges"/><rect fill="#141f27" x="0" y="343.1" width="24.4" height="24.65" shape-rendering="crispEdges"/><rect fill="#141f27" x="24.4" y="343.1" width="170.8" height="24.65" shape-rendering="crispEdges"/><rect fill="#141f27" x="195.2" y="343.1" width="1171.2" height="24.65" shape-rendering="crispEdges"/><rect fill="#141f27" x="1366.4" y="343.1" width="24.4" height="24.65" shape-rendering="crispEdges"/><rect fill="#003054" x="1390.8" y="343.1" width="24.4" height="24.65" shape-rendering="crispEdges"/><rect fill="#141f27" x="0" y="367.5" width="24.4" height="24.65" shape-rendering="crispEdges"/><rect fill="#141f27" x="24.4" y="367.5" width="170.8" height="24.65" shape-rendering="crispEdges"/><rect fill="#141f27" x="195.2" y="367.5" width="1171.2" height="24.65" shape-rendering="crispEdges"/><rect fill="#141f27" x="1366.4" y="367.5" width="24.4" height="24.65" shape-rendering="crispEdges"/><rect fill="#003054" x="1390.8" y="367.5" width="24.4" height="24.65" shape-rendering="crispEdges"/><rect fill="#141f27" x="0" y="391.9" width="24.4" height="24.65" shape-rendering="crispEdges"/><rect fill="#141f27" x="24.4" y="391.9" width="219.6" height="24.65" shape-rendering="crispEdges"/><rect fill="#141f27" x="244" y="391.9" width="1122.4" height="24.65" shape-rendering="crispEdges"/><rect fill="#141f27" x="1366.4" y="391.9" width="24.4" height="24.65" shape-rendering="crispEdges"/><rect fill="#003054" x="1390.8" y="391.9" width="24.4" height="24.65" shape-rendering="crispEdges"/><rect fill="#141f27" x="0" y="416.3" width="24.4" height="24.65" shape-rendering="crispEdges"/><rect fill="#141f27" x="24.4" y="416.3" width="122" height="24.65" shape-rendering="crispEdges"/><rect fill="#141f27" x="146.4" y="416.3" width="1220" height="24.65" shape-rendering="crispEdges"/><rect fill="#141f27" x="1366.4" y="416.3" width="24.4" height="24.65" shape-rendering="crispEdges"/><rect fill="#003054" x="1390.8" y="416.3" width="24.4" height="24.65" shape-rendering="crispEdges"/><rect fill="#141f27" x="0" y="440.7" width="24.4" height="24.65" shape-rendering="crispEdges"/><rect fill="#141f27" x="24.4" y="440.7" width="244" height="24.65" shape-rendering="crispEdges"/><rect fill="#141f27" x="268.4" y="440.7" width="1098" height="24.65" shape-rendering="crispEdges"/><rect fill="#141f27" x="1366.4" y="440.7" width="24.4" height="24.65" shape-rendering="crispEdges"/><rect fill="#003054" x="1390.8" y="440.7" width="24.4" height="24.65" shape-rendering="crispEdges"/><rect fill="#141f27" x="0" y="465.1" width="24.4" height="24.65" shape-rendering="crispEdges"/><rect fill="#141f27" x="24.4" y="465.1" width="268.4" height="24.65" shape-rendering="crispEdges"/><rect fill="#141f27" x="292.8" y="465.1" width="1073.6" height="24.65" shape-rendering="crispEdges"/><rect fill="#141f27" x="1366.4" y="465.1" width="24.4" height="24.65" shape-rendering="crispEdges"/><rect fill="#003054" x="1390.8" y="465.1" width="24.4" height="24.65" shape-rendering="crispEdges"/><rect fill="#141f27" x="0" y="489.5" width="24.4" height="24.65" shape-rendering="crispEdges"/><rect fill="#141f27" x="24.4" y="489.5" width="231.8" height="24.65" shape-rendering="crispEdges"/><rect fill="#141f27" x="256.2" y="489.5" width="1110.2" height="24.65" shape-rendering="crispEdges"/><rect fill="#141f27" x="1366.4" y="489.5" width="24.4" height="24.65" shape-rendering="crispEdges"/><rect fill="#003054" x="1390.8" y="489.5" width="24.4" height="24.65" shape-rendering="crispEdges"/><rect fill="#141f27" x="0" y="513.9" width="24.4" height="24.65" shape-rendering="crispEdges"/><rect fill="#141f27" x="24.4" y="513.9" width="244" height="24.65" shape-rendering="crispEdges"/><rect fill="#141f27" x="268.4" y="513.9" width="1098" height="24.65" shape-rendering="crispEdges"/><rect fill="#141f27" x="1366.4" y="513.9" width="24.4" height="24.65" shape-rendering="crispEdges"/><rect fill="#003054" x="1390.8" y="513.9" width="24.4" height="24.65" shape-rendering="crispEdges"/><rect fill="#141f27" x="0" y="538.3" width="24.4" height="24.65" shape-rendering="crispEdges"/><rect fill="#141f27" x="24.4" y="538.3" width="268.4" height="24.65" shape-rendering="crispEdges"/><rect fill="#141f27" x="292.8" y="538.3" width="1073.6" height="24.65" shape-rendering="crispEdges"/><rect fill="#141f27" x="1366.4" y="538.3" width="24.4" height="24.65" shape-rendering="crispEdges"/><rect fill="#003054" x="1390.8" y="538.3" width="24.4" height="24.65" shape-rendering="crispEdges"/><rect fill="#141f27" x="0" y="562.7" width="24.4" height="24.65" shape-rendering="crispEdges"/><rect fill="#141f27" x="24.4" y="562.7" width="329.4" height="24.65" shape-rendering="crispEdges"/><rect fill="#141f27" x="353.8" y="562.7" width="1012.6" height="24.65" shape-rendering="crispEdges"/><rect fill="#141f27" x="1366.4" y="562.7" width="24.4" height="24.65" shape-rendering="crispEdges"/><rect fill="#000000" x="1390.8" y="562.7" width="24.4" height="24.65" shape-rendering="crispEdges"/><rect fill="#141f27" x="0" y="587.1" width="24.4" height="24.65" shape-rendering="crispEdges"/><rect fill="#141f27" x="24.4" y="587.1" width="170.8" height="24.65" shape-rendering="crispEdges"/><rect fill="#141f27" x="195.2" y="587.1" width="1171.2" height="24.65" shape-rendering="crispEdges"/><rect fill="#141f27" x="1366.4" y="587.1" width="24.4" height="24.65" shape-rendering="crispEdges"/><rect fill="#000000" x="1390.8" y="587.1" width="24.4" height="24.65" shape-rendering="crispEdges"/><rect fill="#141f27" x="0" y="611.5" width="24.4" height="24.65" shape-rendering="crispEdges"/><rect fill="#141f27" x="24.4" y="611.5" width="183" height="24.65" shape-rendering="crispEdges"/><rect fill="#141f27" x="207.4" y="611.5" width="1159" height="24.65" shape-rendering="crispEdges"/><rect fill="#141f27" x="1366.4" y="611.5" width="24.4" height="24.65" shape-rendering="crispEdges"/><rect fill="#000000" x="1390.8" y="611.5" width="24.4" height="24.65" shape-rendering="crispEdges"/><rect fill="#141f27" x="0" y="635.9" width="24.4" height="24.65" shape-rendering="crispEdges"/><rect fill="#141f27" x="24.4" y="635.9" width="268.4" height="24.65" shape-rendering="crispEdges"/><rect fill="#141f27" x="292.8" y="635.9" width="1073.6" height="24.65" shape-rendering="crispEdges"/><rect fill="#141f27" x="1366.4" y="635.9" width="24.4" height="24.65" shape-rendering="crispEdges"/><rect fill="#000000" x="1390.8" y="635.9" width="24.4" height="24.65" shape-rendering="crispEdges"/><rect fill="#141f27" x="0" y="660.3" width="24.4" height="24.65" shape-rendering="crispEdges"/><rect fill="#141f27" x="24.4" y="660.3" width="292.8" height="24.65" shape-rendering="crispEdges"/><rect fill="#141f27" x="317.2" y="660.3" width="1049.2" height="24.65" shape-rendering="crispEdges"/><rect fill="#141f27" x="1366.4" y="660.3" width="24.4" height="24.65" shape-rendering="crispEdges"/><rect fill="#000000" x="1390.8" y="660.3" width="24.4" height="24.65" shape-rendering="crispEdges"/><rect fill="#141f27" x="0" y="684.7" width="1415.2" height="24.65" shape-rendering="crispEdges"/><rect fill="#161616" x="0" y="709.1" width="12.2" height="24.65" shape-rendering="crispEdges"/><rect fill="#161616" x="12.2" y="709.1" width="1378.6" height="24.65" shape-rendering="crispEdges"/><rect fill="#0a0a0a" x="1390.8" y="709.1" width="12.2" height="24.65" shape-rendering="crispEdges"/><rect fill="#161616" x="1403" y="709.1" width="12.2" height="24.65" shape-rendering="crispEdges"/><rect fill="#161616" x="0" y="733.5" width="12.2" height="24.65" shape-rendering="crispEdges"/><rect fill="#161616" x="12.2" y="733.5" width="1378.6" height="24.65" shape-rendering="crispEdges"/><rect fill="#0a0a0a" x="1390.8" y="733.5" width="12.2" height="24.65" shape-rendering="crispEdges"/><rect fill="#161616" x="1403" y="733.5" width="12.2" height="24.65" shape-rendering="crispEdges"/><rect fill="#161616" x="0" y="757.9" width="12.2" height="24.65" shape-rendering="crispEdges"/><rect fill="#161616" x="12.2" y="757.9" width="1378.6" height="24.65" shape-rendering="crispEdges"/><rect fill="#0a0a0a" x="1390.8" y="757.9" width="12.2" height="24.65" shape-rendering="crispEdges"/><rect fill="#161616" x="1403" y="757.9" width="12.2" height="24.65" shape-rendering="crispEdges"/><rect fill="#161616" x="0" y="782.3" width="12.2" height="24.65" shape-rendering="crispEdges"/><rect fill="#161616" x="12.2" y="782.3" width="1378.6" height="24.65" shape-rendering="crispEdges"/><rect fill="#0a0a0a" x="1390.8" y="782.3" width="12.2" height="24.65" shape-rendering="crispEdges"/><rect fill="#161616" x="1403" y="782.3" width="12.2" height="24.65" shape-rendering="crispEdges"/><rect fill="#161616" x="0" y="806.7" width="12.2" height="24.65" shape-rendering="crispEdges"/><rect fill="#161616" x="12.2" y="806.7" width="1390.8" height="24.65" shape-rendering="crispEdges"/><rect fill="#161616" x="1403" y="806.7" width="12.2" height="24.65" shape-rendering="crispEdges"/><rect fill="#121212" x="0" y="831.1" width="12.2" height="24.65" shape-rendering="crispEdges"/><rect fill="#161616" x="12.2" y="831.1" width="36.6" height="24.65" shape-rendering="crispEdges"/><rect fill="#1a1a1a" x="48.8" y="831.1" width="24.4" height="24.65" shape-rendering="crispEdges"/><rect fill="#646464" x="73.2" y="831.1" width="12.2" height="24.65" shape-rendering="crispEdges"/><rect fill="#1a1a1a" x="85.4" y="831.1" width="61" height="24.65" shape-rendering="crispEdges"/><rect fill="#1a1a1a" x="146.4" y="831.1" width="24.4" height="24.65" shape-rendering="crispEdges"/><rect fill="#1a1a1a" x="170.8" y="831.1" width="24.4" height="24.65" shape-rendering="crispEdges"/><rect fill="#121212" x="195.2" y="831.1" width="12.2" height="24.65" shape-rendering="crispEdges"/><rect fill="#2a5738" x="207.4" y="831.1" width="85.4" height="24.65" shape-rendering="crispEdges"/><rect fill="#121212" x="292.8" y="831.1" width="12.2" height="24.65" shape-rendering="crispEdges"/><rect fill="#121212" x="305" y="831.1" width="0" height="24.65" shape-rendering="crispEdges"/><rect fill="#121212" x="305" y="831.1" width="12.2" height="24.65" shape-rendering="crispEdges"/><rect fill="#121212" x="317.2" y="831.1" width="12.2" height="24.65" shape-rendering="crispEdges"/><rect fill="#373e44" x="329.4" y="831.1" width="85.4" height="24.65" shape-rendering="crispEdges"/><rect fill="#121212" x="414.8" y="831.1" width="12.2" height="24.65" shape-rendering="crispEdges"/><rect fill="#3a4148" x="427" y="831.1" width="85.4" height="24.65" shape-rendering="crispEdges"/><rect fill="#121212" x="512.4" y="831.1" width="12.2" height="24.65" shape-rendering="crispEdges"/><rect fill="#1d2a2a" x="524.6" y="831.1" width="85.4" height="24.65" shape-rendering="crispEdges"/><rect fill="#121212" x="610" y="831.1" width="12.2" height="24.65" shape-rendering="crispEdges"/><rect fill="#453762" x="622.2" y="831.1" width="134.2" height="24.65" shape-rendering="crispEdges"/><rect fill="#121212" x="756.4" y="831.1" width="12.2" height="24.65" shape-rendering="crispEdges"/><rect fill="#453762" x="768.6" y="831.1" width="109.8" height="24.65" shape-rendering="crispEdges"/><rect fill="#121212" x="878.4" y="831.1" width="12.2" height="24.65" shape-rendering="crispEdges"/><rect fill="#453762" x="890.6" y="831.1" width="73.2" height="24.65" shape-rendering="crispEdges"/><rect fill="#121212" x="963.8" y="831.1" width="12.2" height="24.65" shape-rendering="crispEdges"/><rect fill="#453762" x="976" y="831.1" width="85.4" height="24.65" shape-rendering="crispEdges"/><rect fill="#121212" x="1061.4" y="831.1" width="12.2" height="24.65" shape-rendering="crispEdges"/><rect fill="#453762" x="1073.6" y="831.1" width="122" height="24.65" shape-rendering="crispEdges"/><rect fill="#121212" x="1195.6" y="831.1" width="24.4" height="24.65" shape-rendering="crispEdges"/><rect fill="#552c5f" x="1220" y="831.1" width="61" height="24.65" shape-rendering="crispEdges"/><rect fill="#121212" x="1281" y="831.1" width="12.2" height="24.65" shape-rendering="crispEdges"/><rect fill="#164470" x="1293.2" y="831.1" width="48.8" height="24.65" shape-rendering="crispEdges"/><rect fill="#121212" x="1342" y="831.1" width="12.2" height="24.65" shape-rendering="crispEdges"/><rect fill="#225238" x="1354.2" y="831.1" width="61" height="24.65" shape-rendering="crispEdges"/>
    <g class="terminal-3256727132-matrix">
    <text class="terminal-3256727132-r2" x="12.2" y="20" textLength="73.2" clip-path="url(#terminal-3256727132-line-0)">&#160;Help&#160;</text><text class="terminal-3256727132-r2" x="122" y="20" textLength="61" clip-path="url(#terminal-3256727132-line-0)">&#160;Cfg&#160;</text><text class="terminal-3256727132-r2" x="219.6" y="20" textLength="61" clip-path="url(#terminal-3256727132-line-0)">&#160;Run&#160;</text><text class="terminal-3256727132-r2" x="317.2" y="20" textLength="85.4" clip-path="url(#terminal-3256727132-line-0)">&#160;Proto&#160;</text><text class="terminal-3256727132-r2" x="561.2" y="20" textLength="158.6" clip-path="url(#terminal-3256727132-line-0)">&#160;Demo&#160;Device&#160;</text><text class="terminal-3256727132-r2" x="890.6" y="20" textLength="207.4" clip-path="url(#terminal-3256727132-line-0)">&#160;DEMO&#160;115200&#160;8N1&#160;</text><text class="terminal-3256727132-r2" x="1134.6" y="20" textLength="170.8" clip-path="url(#terminal-3256727132-line-0)">&#160;&#160;Connected&#160;&#160;&#160;</text><text class="terminal-3256727132-r4" x="1342" y="20" textLength="61" clip-path="url(#terminal-3256727132-line-0)">&#160;&#160;X&#160;&#160;</text><text class="terminal-3256727132-r5" x="1415.2" y="20" textLength="12.2" clip-path="url(#terminal-3256727132-line-0)">
</text><text class="terminal-3256727132-r6" x="0" y="44.4" textLength="12.2" clip-path="url(#terminal-3256727132-line-1)">┌</text><text class="terminal-3256727132-r6" x="12.2" y="44.4" textLength="1390.8" clip-path="url(#terminal-3256727132-line-1)">──────────────────────────────────────────────────────────────────────────────────────────────────────────────────</text><text class="terminal-3256727132-r6" x="1403" y="44.4" textLength="12.2" clip-path="url(#terminal-3256727132-line-1)">┐</text><text class="terminal-3256727132-r5" x="1415.2" y="44.4" textLength="12.2" clip-path="url(#terminal-3256727132-line-1)">
</text><text class="terminal-3256727132-r6" x="0" y="68.8" textLength="12.2" clip-path="url(#terminal-3256727132-line-2)">│</text><text class="terminal-3256727132-r6" x="1403" y="68.8" textLength="12.2" clip-path="url(#terminal-3256727132-line-2)">│</text><text class="terminal-3256727132-r5" x="1415.2" y="68.8" textLength="12.2" clip-path="url(#terminal-3256727132-line-2)">
</text><text class="terminal-3256727132-r8" x="0" y="93.2" textLength="12.2" clip-path="url(#terminal-3256727132-line-3)">▔</text><text class="terminal-3256727132-r8" x="12.2" y="93.2" textLength="1390.8" clip-path="url(#terminal-3256727132-line-3)">▔▔▔▔▔▔▔▔▔▔▔▔▔▔▔▔▔▔▔▔▔▔▔▔▔▔▔▔▔▔▔▔▔▔▔▔▔▔▔▔▔▔▔▔▔▔▔▔▔▔▔▔▔▔▔▔▔▔▔▔▔▔▔▔▔▔▔▔▔▔▔▔▔▔▔▔▔▔▔▔▔▔▔▔▔▔▔▔▔▔▔▔▔▔▔▔▔▔▔▔▔▔▔▔▔▔▔▔▔▔▔▔▔▔</text><text class="terminal-3256727132-r8" x="1403" y="93.2" textLength="12.2" clip-path="url(#terminal-3256727132-line-3)">▔</text><text class="terminal-3256727132-r5" x="1415.2" y="93.2" textLength="12.2" clip-path="url(#terminal-3256727132-line-3)">
</text><text class="terminal-3256727132-r9" x="48.8" y="117.6" textLength="244" clip-path="url(#terminal-3256727132-line-4)">Search&#160;for&#160;commands…</text><text class="terminal-3256727132-r5" x="1415.2" y="117.6" textLength="12.2" clip-path="url(#terminal-3256727132-line-4)">
</text><text class="terminal-3256727132-r5" x="1415.2" y="142" textLength="12.2" clip-path="url(#terminal-3256727132-line-5)">
</text><text class="terminal-3256727132-r11" x="24.4" y="166.4" textLength="146.4" clip-path="url(#terminal-3256727132-line-6)">Clear&#160;Screen</text><text class="terminal-3256727132-r5" x="1415.2" y="166.4" textLength="12.2" clip-path="url(#terminal-3256727132-line-6)">
</text><text class="terminal-3256727132-r11" x="24.4" y="190.8" textLength="244" clip-path="url(#terminal-3256727132-line-7)">Connect&#160;/&#160;Disconnect</text><text class="terminal-3256727132-r5" x="1415.2" y="190.8" textLength="12.2" clip-path="url(#terminal-3256727132-line-7)">
</text><text class="terminal-3256727132-r11" x="24.4" y="215.2" textLength="183" clip-path="url(#terminal-3256727132-line-8)">Delete&#160;Log&#160;File</text><text class="terminal-3256727132-r5" x="1415.2" y="215.2" textLength="12.2" clip-path="url(#terminal-3256727132-line-8)">
</text><text class="terminal-3256727132-r11" x="24.4" y="239.6" textLength="134.2" clip-path="url(#terminal-3256727132-line-9)">Edit&#160;Config</text><text class="terminal-3256727132-r5" x="1415.2" y="239.6" textLength="12.2" clip-path="url(#terminal-3256727132-line-9)">
</text><text class="terminal-3256727132-r11" x="24.4" y="264" textLength="48.8" clip-path="url(#terminal-3256727132-line-10)">Exit</text><text class="terminal-3256727132-r5" x="1415.2" y="264" textLength="12.2" clip-path="url(#terminal-3256727132-line-10)">
</text><text class="terminal-3256727132-r11" x="24.4" y="288.4" textLength="256.2" clip-path="url(#terminal-3256727132-line-11)">Find&#160;in&#160;scrollback...</text><text class="terminal-3256727132-r5" x="1415.2" y="288.4" textLength="12.2" clip-path="url(#terminal-3256727132-line-11)">
</text><text class="terminal-3256727132-r11" x="24.4" y="312.8" textLength="48.8" clip-path="url(#terminal-3256727132-line-12)">Help</text><text class="terminal-3256727132-r5" x="1415.2" y="312.8" textLength="12.2" clip-path="url(#terminal-3256727132-line-12)">
</text><text class="terminal-3256727132-r11" x="24.4" y="337.2" textLength="122" clip-path="url(#terminal-3256727132-line-13)">List&#160;Ports</text><text class="terminal-3256727132-r5" x="1415.2" y="337.2" textLength="12.2" clip-path="url(#terminal-3256727132-line-13)">
</text><text class="terminal-3256727132-r11" x="24.4" y="361.6" textLength="170.8" clip-path="url(#terminal-3256727132-line-14)">List&#160;Variables</text><text class="terminal-3256727132-r5" x="1415.2" y="361.6" textLength="12.2" clip-path="url(#terminal-3256727132-line-14)">
</text><text class="terminal-3256727132-r11" x="24.4" y="386" textLength="170.8" clip-path="url(#terminal-3256727132-line-15)">Load&#160;Config...</text><text class="terminal-3256727132-r5" x="1415.2" y="386" textLength="12.2" clip-path="url(#terminal-3256727132-line-15)">
</text><text class="terminal-3256727132-r11" x="24.4" y="410.4" textLength="219.6" clip-path="url(#terminal-3256727132-line-16)">Load&#160;Run&#160;Script...</text><text class="terminal-3256727132-r5" x="1415.2" y="410.4" textLength="12.2" clip-path="url(#terminal-3256727132-line-16)">
</text><text class="terminal-3256727132-r11" x="24.4" y="434.8" textLength="122" clip-path="url(#terminal-3256727132-line-17)">New&#160;Config</text><text class="terminal-3256727132-r5" x="1415.2" y="434.8" textLength="12.2" clip-path="url(#terminal-3256727132-line-17)">
</text><text class="terminal-3256727132-r11" x="24.4" y="459.2" textLength="244" clip-path="url(#terminal-3256727132-line-18)">Open&#160;Captures&#160;Folder</text><text class="terminal-3256727132-r5" x="1415.2" y="459.2" textLength="12.2" clip-path="url(#terminal-3256727132-line-18)">
</text><text class="terminal-3256727132-r11" x="24.4" y="483.6" textLength="268.4" clip-path="url(#terminal-3256727132-line-19)">Open&#160;Screenshot&#160;Folder</text><text class="terminal-3256727132-r5" x="1415.2" y="483.6" textLength="12.2" clip-path="url(#terminal-3256727132-line-19)">
</text><text class="terminal-3256727132-r11" x="24.4" y="508" textLength="231.8" clip-path="url(#terminal-3256727132-line-20)">Save&#160;SVG&#160;Screenshot</text><text class="terminal-3256727132-r5" x="1415.2" y="508" textLength="12.2" clip-path="url(#terminal-3256727132-line-20)">
</text><text class="terminal-3256727132-r11" x="24.4" y="532.4" textLength="244" clip-path="url(#terminal-3256727132-line-21)">Save&#160;Text&#160;Screenshot</text><text class="terminal-3256727132-r5" x="1415.2" y="532.4" textLength="12.2" clip-path="url(#terminal-3256727132-line-21)">
</text><text class="terminal-3256727132-r11" x="24.4" y="556.8" textLength="268.4" clip-path="url(#terminal-3256727132-line-22)">Search&#160;command&#160;help...</text><text class="terminal-3256727132-r13" x="1390.8" y="556.8" textLength="24.4" clip-path="url(#terminal-3256727132-line-22)">▂▂</text><text class="terminal-3256727132-r5" x="1415.2" y="556.8" textLength="12.2" clip-path="url(#terminal-3256727132-line-22)">
</text><text class="terminal-3256727132-r11" x="24.4" y="581.2" textLength="329.4" clip-path="url(#terminal-3256727132-line-23)">Search&#160;scrollback&#160;(Grep)...</text><text class="terminal-3256727132-r5" x="1415.2" y="581.2" textLength="12.2" clip-path="url(#terminal-3256727132-line-23)">
</text><text class="terminal-3256727132-r11" x="24.4" y="605.6" textLength="170.8" clip-path="url(#terminal-3256727132-line-24)">Select&#160;Port...</text><text class="terminal-3256727132-r5" x="1415.2" y="605.6" textLength="12.2" clip-path="url(#terminal-3256727132-line-24)">
</text><text class="terminal-3256727132-r11" x="24.4" y="630" textLength="183" clip-path="url(#terminal-3256727132-line-25)">Set&#160;Variable...</text><text class="terminal-3256727132-r5" x="1415.2" y="630" textLength="12.2" clip-path="url(#terminal-3256727132-line-25)">
</text><text class="terminal-3256727132-r11" x="24.4" y="654.4" textLength="268.4" clip-path="url(#terminal-3256727132-line-26)">Show&#160;Newest&#160;Screenshot</text><text class="terminal-3256727132-r5" x="1415.2" y="654.4" textLength="12.2" clip-path="url(#terminal-3256727132-line-26)">
</text><text class="terminal-3256727132-r11" x="24.4" y="678.8" textLength="292.8" clip-path="url(#terminal-3256727132-line-27)">Show&#160;Newest&#160;Text&#160;Capture</text><text class="terminal-3256727132-r5" x="1415.2" y="678.8" textLength="12.2" clip-path="url(#terminal-3256727132-line-27)">
</text><text class="terminal-3256727132-r13" x="0" y="703.2" textLength="1415.2" clip-path="url(#terminal-3256727132-line-28)">▁▁▁▁▁▁▁▁▁▁▁▁▁▁▁▁▁▁▁▁▁▁▁▁▁▁▁▁▁▁▁▁▁▁▁▁▁▁▁▁▁▁▁▁▁▁▁▁▁▁▁▁▁▁▁▁▁▁▁▁▁▁▁▁▁▁▁▁▁▁▁▁▁▁▁▁▁▁▁▁▁▁▁▁▁▁▁▁▁▁▁▁▁▁▁▁▁▁▁▁▁▁▁▁▁▁▁▁▁▁▁▁▁▁▁▁</text><text class="terminal-3256727132-r5" x="1415.2" y="703.2" textLength="12.2" clip-path="url(#terminal-3256727132-line-28)">
</text><text class="terminal-3256727132-r6" x="0" y="727.6" textLength="12.2" clip-path="url(#terminal-3256727132-line-29)">│</text><text class="terminal-3256727132-r6" x="1403" y="727.6" textLength="12.2" clip-path="url(#terminal-3256727132-line-29)">│</text><text class="terminal-3256727132-r5" x="1415.2" y="727.6" textLength="12.2" clip-path="url(#terminal-3256727132-line-29)">
</text><text class="terminal-3256727132-r6" x="0" y="752" textLength="12.2" clip-path="url(#terminal-3256727132-line-30)">│</text><text class="terminal-3256727132-r6" x="1403" y="752" textLength="12.2" clip-path="url(#terminal-3256727132-line-30)">│</text><text class="terminal-3256727132-r5" x="1415.2" y="752" textLength="12.2" clip-path="url(#terminal-3256727132-line-30)">
</text><text class="terminal-3256727132-r6" x="0" y="776.4" textLength="12.2" clip-path="url(#terminal-3256727132-line-31)">│</text><text class="terminal-3256727132-r6" x="1403" y="776.4" textLength="12.2" clip-path="url(#terminal-3256727132-line-31)">│</text><text class="terminal-3256727132-r5" x="1415.2" y="776.4" textLength="12.2" clip-path="url(#terminal-3256727132-line-31)">
</text><text class="terminal-3256727132-r6" x="0" y="800.8" textLength="12.2" clip-path="url(#terminal-3256727132-line-32)">│</text><text class="terminal-3256727132-r6" x="1403" y="800.8" textLength="12.2" clip-path="url(#terminal-3256727132-line-32)">│</text><text class="terminal-3256727132-r5" x="1415.2" y="800.8" textLength="12.2" clip-path="url(#terminal-3256727132-line-32)">
</text><text class="terminal-3256727132-r6" x="0" y="825.2" textLength="12.2" clip-path="url(#terminal-3256727132-line-33)">└</text><text class="terminal-3256727132-r6" x="12.2" y="825.2" textLength="1390.8" clip-path="url(#terminal-3256727132-line-33)">──────────────────────────────────────────────────────────────────────────────────────────────────────────────────</text><text class="terminal-3256727132-r6" x="1403" y="825.2" textLength="12.2" clip-path="url(#terminal-3256727132-line-33)">┘</text><text class="terminal-3256727132-r5" x="1415.2" y="825.2" textLength="12.2" clip-path="url(#terminal-3256727132-line-33)">
</text><text class="terminal-3256727132-r2" x="12.2" y="849.6" textLength="36.6" clip-path="url(#terminal-3256727132-line-34)">&#160;/&#160;</text><text class="terminal-3256727132-r14" x="73.2" y="849.6" textLength="12.2" clip-path="url(#terminal-3256727132-line-34)">/</text><text class="terminal-3256727132-r15" x="85.4" y="849.6" textLength="61" clip-path="url(#terminal-3256727132-line-34)">&#160;for&#160;</text><text class="terminal-3256727132-r16" x="207.4" y="849.6" textLength="85.4" clip-path="url(#terminal-3256727132-line-34)">&#160;&lt;Rec&gt;&#160;</text><text class="terminal-3256727132-r2" x="329.4" y="849.6" textLength="85.4" clip-path="url(#terminal-3256727132-line-34)">&#160;DTR:1&#160;</text><text class="terminal-3256727132-r2" x="427" y="849.6" textLength="85.4" clip-path="url(#terminal-3256727132-line-34)">&#160;RTS:1&#160;</text><text class="terminal-3256727132-r2" x="524.6" y="849.6" textLength="85.4" clip-path="url(#terminal-3256727132-line-34)">&#160;Break&#160;</text><text class="terminal-3256727132-r2" x="622.2" y="849.6" textLength="134.2" clip-path="url(#terminal-3256727132-line-34)">&#160;Demo&#160;Help&#160;</text><text class="terminal-3256727132-r2" x="768.6" y="849.6" textLength="109.8" clip-path="url(#terminal-3256727132-line-34)">&#160;AT&#160;Demo&#160;</text><text class="terminal-3256727132-r2" x="890.6" y="849.6" textLength="73.2" clip-path="url(#terminal-3256727132-line-34)">&#160;Info&#160;</text><text class="terminal-3256727132-r2" x="976" y="849.6" textLength="85.4" clip-path="url(#terminal-3256727132-line-34)">&#160;Probe&#160;</text><text class="terminal-3256727132-r2" x="1073.6" y="849.6" textLength="122" clip-path="url(#terminal-3256727132-line-34)">&#160;TempPlot&#160;</text><text class="terminal-3256727132-r2" x="1220" y="849.6" textLength="61" clip-path="url(#terminal-3256727132-line-34)">&#160;Log&#160;</text><text class="terminal-3256727132-r2" x="1293.2" y="849.6" textLength="48.8" clip-path="url(#terminal-3256727132-line-34)">&#160;SS&#160;</text><text class="terminal-3256727132-r2" x="1354.2" y="849.6" textLength="61" clip-path="url(#terminal-3256727132-line-34)">&#160;Cap&#160;</text>
    </g>
    </g>
</svg>
