<svg class="rich-terminal" viewBox="0 0 1421 757.5999999999999" xmlns="http://www.w3.org/2000/svg">
    <!-- Generated with Rich https://www.textualize.io -->
    <style>

    @font-face {
        font-family: "Fira Code";
        src: local("FiraCode-Regular"),
                url("https://cdnjs.cloudflare.com/ajax/libs/firacode/6.2.0/woff2/FiraCode-Regular.woff2") format("woff2"),
                url("https://cdnjs.cloudflare.com/ajax/libs/firacode/6.2.0/woff/FiraCode-Regular.woff") format("woff");
        font-style: normal;
        font-weight: 400;
    }
    @font-face {
        font-family: "Fira Code";
        src: local("FiraCode-Bold"),
                url("https://cdnjs.cloudflare.com/ajax/libs/firacode/6.2.0/woff2/FiraCode-Bold.woff2") format("woff2"),
                url("https://cdnjs.cloudflare.com/ajax/libs/firacode/6.2.0/woff/FiraCode-Bold.woff") format("woff");
        font-style: bold;
        font-weight: 700;
    }

    .terminal-863634909-matrix {
        font-family: Fira Code, monospace;
        font-size: 20px;
        line-height: 24.4px;
        font-variant-east-asian: full-width;
    }

    .terminal-863634909-title {
        font-size: 18px;
        font-weight: bold;
        font-family: arial;
    }

    .terminal-863634909-r1 { fill: #c5c8c6 }
.terminal-863634909-r2 { fill: #e0e0e0;font-weight: bold }
.terminal-863634909-r3 { fill: #ffffff }
.terminal-863634909-r4 { fill: #0000ff }
.terminal-863634909-r5 { fill: #af00ff }
.terminal-863634909-r6 { fill: #e0e0e0 }
.terminal-863634909-r7 { fill: #58d1eb }
.terminal-863634909-r8 { fill: #9e9e9e }
.terminal-863634909-r9 { fill: #9d65ff }
.terminal-863634909-r10 { fill: #121212 }
.terminal-863634909-r11 { fill: #797979 }
    </style>

    <defs>
    <clipPath id="terminal-863634909-clip-terminal">
      <rect x="0" y="0" width="1402.0" height="706.5999999999999" />
    </clipPath>
    <clipPath id="terminal-863634909-line-0">
    <rect x="0" y="1.5" width="1403" height="24.65"/>
            </clipPath>
<clipPath id="terminal-863634909-line-1">
    <rect x="0" y="25.9" width="1403" height="24.65"/>
            </clipPath>
<clipPath id="terminal-863634909-line-2">
    <rect x="0" y="50.3" width="1403" height="24.65"/>
            </clipPath>
<clipPath id="terminal-863634909-line-3">
    <rect x="0" y="74.7" width="1403" height="24.65"/>
            </clipPath>
<clipPath id="terminal-863634909-line-4">
    <rect x="0" y="99.1" width="1403" height="24.65"/>
            </clipPath>
<clipPath id="terminal-863634909-line-5">
    <rect x="0" y="123.5" width="1403" height="24.65"/>
            </clipPath>
<clipPath id="terminal-863634909-line-6">
    <rect x="0" y="147.9" width="1403" height="24.65"/>
            </clipPath>
<clipPath id="terminal-863634909-line-7">
    <rect x="0" y="172.3" width="1403" height="24.65"/>
            </clipPath>
<clipPath id="terminal-863634909-line-8">
    <rect x="0" y="196.7" width="1403" height="24.65"/>
            </clipPath>
<clipPath id="terminal-863634909-line-9">
    <rect x="0" y="221.1" width="1403" height="24.65"/>
            </clipPath>
<clipPath id="terminal-863634909-line-10">
    <rect x="0" y="245.5" width="1403" height="24.65"/>
            </clipPath>
<clipPath id="terminal-863634909-line-11">
    <rect x="0" y="269.9" width="1403" height="24.65"/>
            </clipPath>
<clipPath id="terminal-863634909-line-12">
    <rect x="0" y="294.3" width="1403" height="24.65"/>
            </clipPath>
<clipPath id="terminal-863634909-line-13">
    <rect x="0" y="318.7" width="1403" height="24.65"/>
            </clipPath>
<clipPath id="terminal-863634909-line-14">
    <rect x="0" y="343.1" width="1403" height="24.65"/>
            </clipPath>
<clipPath id="terminal-863634909-line-15">
    <rect x="0" y="367.5" width="1403" height="24.65"/>
            </clipPath>
<clipPath id="terminal-863634909-line-16">
    <rect x="0" y="391.9" width="1403" height="24.65"/>
            </clipPath>
<clipPath id="terminal-863634909-line-17">
    <rect x="0" y="416.3" width="1403" height="24.65"/>
            </clipPath>
<clipPath id="terminal-863634909-line-18">
    <rect x="0" y="440.7" width="1403" height="24.65"/>
            </clipPath>
<clipPath id="terminal-863634909-line-19">
    <rect x="0" y="465.1" width="1403" height="24.65"/>
            </clipPath>
<clipPath id="terminal-863634909-line-20">
    <rect x="0" y="489.5" width="1403" height="24.65"/>
            </clipPath>
<clipPath id="terminal-863634909-line-21">
    <rect x="0" y="513.9" width="1403" height="24.65"/>
            </clipPath>
<clipPath id="terminal-863634909-line-22">
    <rect x="0" y="538.3" width="1403" height="24.65"/>
            </clipPath>
<clipPath id="terminal-863634909-line-23">
    <rect x="0" y="562.7" width="1403" height="24.65"/>
            </clipPath>
<clipPath id="terminal-863634909-line-24">
    <rect x="0" y="587.1" width="1403" height="24.65"/>
            </clipPath>
<clipPath id="terminal-863634909-line-25">
    <rect x="0" y="611.5" width="1403" height="24.65"/>
            </clipPath>
<clipPath id="terminal-863634909-line-26">
    <rect x="0" y="635.9" width="1403" height="24.65"/>
            </clipPath>
<clipPath id="terminal-863634909-line-27">
    <rect x="0" y="660.3" width="1403" height="24.65"/>
            </clipPath>
    </defs>

    <rect fill="#292929" stroke="rgba(255,255,255,0.35)" stroke-width="1" x="1" y="1" width="1419" height="755.6" rx="8"/><text class="terminal-863634909-title" fill="#c5c8c6" text-anchor="middle" x="709" y="27">termapy</text>
            <g transform="translate(26,22)">
            <circle cx="0" cy="0" r="7" fill="#ff5f57"/>
            <circle cx="22" cy="0" r="7" fill="#febc2e"/>
            <circle cx="44" cy="0" r="7" fill="#28c840"/>
            </g>
        
    <g transform="translate(9, 41)" clip-path="url(#terminal-863634909-clip-terminal)">
    <rect fill="#0000ff" x="0" y="1.5" width="12.2" height="24.65" shape-rendering="crispEdges"/><rect fill="#0178d4" x="12.2" y="1.5" width="12.2" height="24.65" shape-rendering="crispEdges"/><rect fill="#0178d4" x="24.4" y="1.5" width="36.6" height="24.65" shape-rendering="crispEdges"/><rect fill="#0178d4" x="61" y="1.5" width="12.2" height="24.65" shape-rendering="crispEdges"/><rect fill="#0000ff" x="73.2" y="1.5" width="12.2" height="24.65" shape-rendering="crispEdges"/><rect fill="#1e90ff" x="85.4" y="1.5" width="12.2" height="24.65" shape-rendering="crispEdges"/><rect fill="#1e90ff" x="97.6" y="1.5" width="61" height="24.65" shape-rendering="crispEdges"/><rect fill="#1e90ff" x="158.6" y="1.5" width="12.2" height="24.65" shape-rendering="crispEdges"/><rect fill="#0000ff" x="170.8" y="1.5" width="12.2" height="24.65" shape-rendering="crispEdges"/><rect fill="#1e90ff" x="183" y="1.5" width="12.2" height="24.65" shape-rendering="crispEdges"/><rect fill="#1e90ff" x="195.2" y="1.5" width="61" height="24.65" shape-rendering="crispEdges"/><rect fill="#1e90ff" x="256.2" y="1.5" width="12.2" height="24.65" shape-rendering="crispEdges"/><rect fill="#0000ff" x="268.4" y="1.5" width="12.2" height="24.65" shape-rendering="crispEdges"/><rect fill="#1e90ff" x="280.6" y="1.5" width="12.2" height="24.65" shape-rendering="crispEdges"/><rect fill="#1e90ff" x="292.8" y="1.5" width="85.4" height="24.65" shape-rendering="crispEdges"/><rect fill="#1e90ff" x="378.2" y="1.5" width="12.2" height="24.65" shape-rendering="crispEdges"/><rect fill="#0000ff" x="390.4" y="1.5" width="0" height="24.65" shape-rendering="crispEdges"/><rect fill="#0000ff" x="390.4" y="1.5" width="134.2" height="24.65" shape-rendering="crispEdges"/><rect fill="#0000ff" x="524.6" y="1.5" width="12.2" height="24.65" shape-rendering="crispEdges"/><rect fill="#008000" x="536.8" y="1.5" width="12.2" height="24.65" shape-rendering="crispEdges"/><rect fill="#008000" x="549" y="1.5" width="48.8" height="24.65" shape-rendering="crispEdges"/><rect fill="#008000" x="597.8" y="1.5" width="158.6" height="24.65" shape-rendering="crispEdges"/><rect fill="#008000" x="756.4" y="1.5" width="61" height="24.65" shape-rendering="crispEdges"/><rect fill="#008000" x="817.4" y="1.5" width="12.2" height="24.65" shape-rendering="crispEdges"/><rect fill="#0000ff" x="829.6" y="1.5" width="0" height="24.65" shape-rendering="crispEdges"/><rect fill="#0000ff" x="829.6" y="1.5" width="134.2" height="24.65" shape-rendering="crispEdges"/><rect fill="#0000ff" x="963.8" y="1.5" width="12.2" height="24.65" shape-rendering="crispEdges"/><rect fill="#008000" x="976" y="1.5" width="12.2" height="24.65" shape-rendering="crispEdges"/><rect fill="#008000" x="988.2" y="1.5" width="231.8" height="24.65" shape-rendering="crispEdges"/><rect fill="#008000" x="1220" y="1.5" width="12.2" height="24.65" shape-rendering="crispEdges"/><rect fill="#0000ff" x="1232.2" y="1.5" width="12.2" height="24.65" shape-rendering="crispEdges"/><rect fill="#008000" x="1244.4" y="1.5" width="12.2" height="24.65" shape-rendering="crispEdges"/><rect fill="#008000" x="1256.6" y="1.5" width="134.2" height="24.65" shape-rendering="crispEdges"/><rect fill="#008000" x="1390.8" y="1.5" width="12.2" height="24.65" shape-rendering="crispEdges"/><rect fill="#1e1e1e" x="0" y="25.9" width="12.2" height="24.65" shape-rendering="crispEdges"/><rect fill="#1e1e1e" x="12.2" y="25.9" width="1378.6" height="24.65" shape-rendering="crispEdges"/><rect fill="#1e1e1e" x="1390.8" y="25.9" width="12.2" height="24.65" shape-rendering="crispEdges"/><rect fill="#1e1e1e" x="0" y="50.3" width="12.2" height="24.65" shape-rendering="crispEdges"/><rect fill="#1e1e1e" x="12.2" y="50.3" width="85.4" height="24.65" shape-rendering="crispEdges"/><rect fill="#1e1e1e" x="97.6" y="50.3" width="1281" height="24.65" shape-rendering="crispEdges"/><rect fill="#000000" x="1378.6" y="50.3" width="12.2" height="24.65" shape-rendering="crispEdges"/><rect fill="#1e1e1e" x="1390.8" y="50.3" width="12.2" height="24.65" shape-rendering="crispEdges"/><rect fill="#1e1e1e" x="0" y="74.7" width="12.2" height="24.65" shape-rendering="crispEdges"/><rect fill="#1e1e1e" x="12.2" y="74.7" width="61" height="24.65" shape-rendering="crispEdges"/><rect fill="#1e1e1e" x="73.2" y="74.7" width="1305.4" height="24.65" shape-rendering="crispEdges"/><rect fill="#000000" x="1378.6" y="74.7" width="12.2" height="24.65" shape-rendering="crispEdges"/><rect fill="#1e1e1e" x="1390.8" y="74.7" width="12.2" height="24.65" shape-rendering="crispEdges"/><rect fill="#1e1e1e" x="0" y="99.1" width="12.2" height="24.65" shape-rendering="crispEdges"/><rect fill="#1e1e1e" x="12.2" y="99.1" width="48.8" height="24.65" shape-rendering="crispEdges"/><rect fill="#1e1e1e" x="61" y="99.1" width="109.8" height="24.65" shape-rendering="crispEdges"/><rect fill="#1e1e1e" x="170.8" y="99.1" width="1207.8" height="24.65" shape-rendering="crispEdges"/><rect fill="#000000" x="1378.6" y="99.1" width="12.2" height="24.65" shape-rendering="crispEdges"/><rect fill="#1e1e1e" x="1390.8" y="99.1" width="12.2" height="24.65" shape-rendering="crispEdges"/><rect fill="#1e1e1e" x="0" y="123.5" width="12.2" height="24.65" shape-rendering="crispEdges"/><rect fill="#1e1e1e" x="12.2" y="123.5" width="48.8" height="24.65" shape-rendering="crispEdges"/><rect fill="#1e1e1e" x="61" y="123.5" width="97.6" height="24.65" shape-rendering="crispEdges"/><rect fill="#1e1e1e" x="158.6" y="123.5" width="1220" height="24.65" shape-rendering="crispEdges"/><rect fill="#000000" x="1378.6" y="123.5" width="12.2" height="24.65" shape-rendering="crispEdges"/><rect fill="#1e1e1e" x="1390.8" y="123.5" width="12.2" height="24.65" shape-rendering="crispEdges"/><rect fill="#1e1e1e" x="0" y="147.9" width="12.2" height="24.65" shape-rendering="crispEdges"/><rect fill="#1e1e1e" x="12.2" y="147.9" width="48.8" height="24.65" shape-rendering="crispEdges"/><rect fill="#1e1e1e" x="61" y="147.9" width="97.6" height="24.65" shape-rendering="crispEdges"/><rect fill="#1e1e1e" x="158.6" y="147.9" width="1220" height="24.65" shape-rendering="crispEdges"/><rect fill="#000000" x="1378.6" y="147.9" width="12.2" height="24.65" shape-rendering="crispEdges"/><rect fill="#1e1e1e" x="1390.8" y="147.9" width="12.2" height="24.65" shape-rendering="crispEdges"/><rect fill="#1e1e1e" x="0" y="172.3" width="12.2" height="24.65" shape-rendering="crispEdges"/><rect fill="#1e1e1e" x="12.2" y="172.3" width="97.6" height="24.65" shape-rendering="crispEdges"/><rect fill="#1e1e1e" x="109.8" y="172.3" width="134.2" height="24.65" shape-rendering="crispEdges"/><rect fill="#1e1e1e" x="244" y="172.3" width="1134.6" height="24.65" shape-rendering="crispEdges"/><rect fill="#000000" x="1378.6" y="172.3" width="12.2" height="24.65" shape-rendering="crispEdges"/><rect fill="#1e1e1e" x="1390.8" y="172.3" width="12.2" height="24.65" shape-rendering="crispEdges"/><rect fill="#1e1e1e" x="0" y="196.7" width="12.2" height="24.65" shape-rendering="crispEdges"/><rect fill="#1e1e1e" x="12.2" y="196.7" width="97.6" height="24.65" shape-rendering="crispEdges"/><rect fill="#1e1e1e" x="109.8" y="196.7" width="170.8" height="24.65" shape-rendering="crispEdges"/><rect fill="#1e1e1e" x="280.6" y="196.7" width="1098" height="24.65" shape-rendering="crispEdges"/><rect fill="#000000" x="1378.6" y="196.7" width="12.2" height="24.65" shape-rendering="crispEdges"/><rect fill="#1e1e1e" x="1390.8" y="196.7" width="12.2" height="24.65" shape-rendering="crispEdges"/><rect fill="#1e1e1e" x="0" y="221.1" width="12.2" height="24.65" shape-rendering="crispEdges"/><rect fill="#1e1e1e" x="12.2" y="221.1" width="97.6" height="24.65" shape-rendering="crispEdges"/><rect fill="#1e1e1e" x="109.8" y="221.1" width="195.2" height="24.65" shape-rendering="crispEdges"/><rect fill="#1e1e1e" x="305" y="221.1" width="1073.6" height="24.65" shape-rendering="crispEdges"/><rect fill="#000000" x="1378.6" y="221.1" width="12.2" height="24.65" shape-rendering="crispEdges"/><rect fill="#1e1e1e" x="1390.8" y="221.1" width="12.2" height="24.65" shape-rendering="crispEdges"/><rect fill="#1e1e1e" x="0" y="245.5" width="12.2" height="24.65" shape-rendering="crispEdges"/><rect fill="#1e1e1e" x="12.2" y="245.5" width="48.8" height="24.65" shape-rendering="crispEdges"/><rect fill="#1e1e1e" x="61" y="245.5" width="73.2" height="24.65" shape-rendering="crispEdges"/><rect fill="#1e1e1e" x="134.2" y="245.5" width="1244.4" height="24.65" shape-rendering="crispEdges"/><rect fill="#000000" x="1378.6" y="245.5" width="12.2" height="24.65" shape-rendering="crispEdges"/><rect fill="#1e1e1e" x="1390.8" y="245.5" width="12.2" height="24.65" shape-rendering="crispEdges"/><rect fill="#1e1e1e" x="0" y="269.9" width="12.2" height="24.65" shape-rendering="crispEdges"/><rect fill="#1e1e1e" x="12.2" y="269.9" width="97.6" height="24.65" shape-rendering="crispEdges"/><rect fill="#1e1e1e" x="109.8" y="269.9" width="134.2" height="24.65" shape-rendering="crispEdges"/><rect fill="#1e1e1e" x="244" y="269.9" width="1134.6" height="24.65" shape-rendering="crispEdges"/><rect fill="#000000" x="1378.6" y="269.9" width="12.2" height="24.65" shape-rendering="crispEdges"/><rect fill="#1e1e1e" x="1390.8" y="269.9" width="12.2" height="24.65" shape-rendering="crispEdges"/><rect fill="#1e1e1e" x="0" y="294.3" width="12.2" height="24.65" shape-rendering="crispEdges"/><rect fill="#1e1e1e" x="12.2" y="294.3" width="97.6" height="24.65" shape-rendering="crispEdges"/><rect fill="#1e1e1e" x="109.8" y="294.3" width="183" height="24.65" shape-rendering="crispEdges"/><rect fill="#1e1e1e" x="292.8" y="294.3" width="1085.8" height="24.65" shape-rendering="crispEdges"/><rect fill="#000000" x="1378.6" y="294.3" width="12.2" height="24.65" shape-rendering="crispEdges"/><rect fill="#1e1e1e" x="1390.8" y="294.3" width="12.2" height="24.65" shape-rendering="crispEdges"/><rect fill="#1e1e1e" x="0" y="318.7" width="12.2" height="24.65" shape-rendering="crispEdges"/><rect fill="#1e1e1e" x="12.2" y="318.7" width="48.8" height="24.65" shape-rendering="crispEdges"/><rect fill="#1e1e1e" x="61" y="318.7" width="97.6" height="24.65" shape-rendering="crispEdges"/><rect fill="#1e1e1e" x="158.6" y="318.7" width="1220" height="24.65" shape-rendering="crispEdges"/><rect fill="#000000" x="1378.6" y="318.7" width="12.2" height="24.65" shape-rendering="crispEdges"/><rect fill="#1e1e1e" x="1390.8" y="318.7" width="12.2" height="24.65" shape-rendering="crispEdges"/><rect fill="#1e1e1e" x="0" y="343.1" width="12.2" height="24.65" shape-rendering="crispEdges"/><rect fill="#1e1e1e" x="12.2" y="343.1" width="48.8" height="24.65" shape-rendering="crispEdges"/><rect fill="#1e1e1e" x="61" y="343.1" width="36.6" height="24.65" shape-rendering="crispEdges"/><rect fill="#1e1e1e" x="97.6" y="343.1" width="1281" height="24.65" shape-rendering="crispEdges"/><rect fill="#000000" x="1378.6" y="343.1" width="12.2" height="24.65" shape-rendering="crispEdges"/><rect fill="#1e1e1e" x="1390.8" y="343.1" width="12.2" height="24.65" shape-rendering="crispEdges"/><rect fill="#1e1e1e" x="0" y="367.5" width="12.2" height="24.65" shape-rendering="crispEdges"/><rect fill="#1e1e1e" x="12.2" y="367.5" width="97.6" height="24.65" shape-rendering="crispEdges"/><rect fill="#1e1e1e" x="109.8" y="367.5" width="353.8" height="24.65" shape-rendering="crispEdges"/><rect fill="#1e1e1e" x="463.6" y="367.5" width="915" height="24.65" shape-rendering="crispEdges"/><rect fill="#000000" x="1378.6" y="367.5" width="12.2" height="24.65" shape-rendering="crispEdges"/><rect fill="#1e1e1e" x="1390.8" y="367.5" width="12.2" height="24.65" shape-rendering="crispEdges"/><rect fill="#1e1e1e" x="0" y="391.9" width="12.2" height="24.65" shape-rendering="crispEdges"/><rect fill="#1e1e1e" x="12.2" y="391.9" width="97.6" height="24.65" shape-rendering="crispEdges"/><rect fill="#1e1e1e" x="109.8" y="391.9" width="353.8" height="24.65" shape-rendering="crispEdges"/><rect fill="#1e1e1e" x="463.6" y="391.9" width="915" height="24.65" shape-rendering="crispEdges"/><rect fill="#000000" x="1378.6" y="391.9" width="12.2" height="24.65" shape-rendering="crispEdges"/><rect fill="#1e1e1e" x="1390.8" y="391.9" width="12.2" height="24.65" shape-rendering="crispEdges"/><rect fill="#1e1e1e" x="0" y="416.3" width="12.2" height="24.65" shape-rendering="crispEdges"/><rect fill="#1e1e1e" x="12.2" y="416.3" width="97.6" height="24.65" shape-rendering="crispEdges"/><rect fill="#1e1e1e" x="109.8" y="416.3" width="353.8" height="24.65" shape-rendering="crispEdges"/><rect fill="#1e1e1e" x="463.6" y="416.3" width="915" height="24.65" shape-rendering="crispEdges"/><rect fill="#000000" x="1378.6" y="416.3" width="12.2" height="24.65" shape-rendering="crispEdges"/><rect fill="#1e1e1e" x="1390.8" y="416.3" width="12.2" height="24.65" shape-rendering="crispEdges"/><rect fill="#1e1e1e" x="0" y="440.7" width="12.2" height="24.65" shape-rendering="crispEdges"/><rect fill="#1e1e1e" x="12.2" y="440.7" width="97.6" height="24.65" shape-rendering="crispEdges"/><rect fill="#1e1e1e" x="109.8" y="440.7" width="353.8" height="24.65" shape-rendering="crispEdges"/><rect fill="#1e1e1e" x="463.6" y="440.7" width="915" height="24.65" shape-rendering="crispEdges"/><rect fill="#000000" x="1378.6" y="440.7" width="12.2" height="24.65" shape-rendering="crispEdges"/><rect fill="#1e1e1e" x="1390.8" y="440.7" width="12.2" height="24.65" shape-rendering="crispEdges"/><rect fill="#1e1e1e" x="0" y="465.1" width="12.2" height="24.65" shape-rendering="crispEdges"/><rect fill="#1e1e1e" x="12.2" y="465.1" width="97.6" height="24.65" shape-rendering="crispEdges"/><rect fill="#1e1e1e" x="109.8" y="465.1" width="353.8" height="24.65" shape-rendering="crispEdges"/><rect fill="#1e1e1e" x="463.6" y="465.1" width="915" height="24.65" shape-rendering="crispEdges"/><rect fill="#000000" x="1378.6" y="465.1" width="12.2" height="24.65" shape-rendering="crispEdges"/><rect fill="#1e1e1e" x="1390.8" y="465.1" width="12.2" height="24.65" shape-rendering="crispEdges"/><rect fill="#1e1e1e" x="0" y="489.5" width="12.2" height="24.65" shape-rendering="crispEdges"/><rect fill="#1e1e1e" x="12.2" y="489.5" width="97.6" height="24.65" shape-rendering="crispEdges"/><rect fill="#1e1e1e" x="109.8" y="489.5" width="353.8" height="24.65" shape-rendering="crispEdges"/><rect fill="#1e1e1e" x="463.6" y="489.5" width="915" height="24.65" shape-rendering="crispEdges"/><rect fill="#000000" x="1378.6" y="489.5" width="12.2" height="24.65" shape-rendering="crispEdges"/><rect fill="#1e1e1e" x="1390.8" y="489.5" width="12.2" height="24.65" shape-rendering="crispEdges"/><rect fill="#1e1e1e" x="0" y="513.9" width="12.2" height="24.65" shape-rendering="crispEdges"/><rect fill="#1e1e1e" x="12.2" y="513.9" width="97.6" height="24.65" shape-rendering="crispEdges"/><rect fill="#1e1e1e" x="109.8" y="513.9" width="366" height="24.65" shape-rendering="crispEdges"/><rect fill="#1e1e1e" x="475.8" y="513.9" width="902.8" height="24.65" shape-rendering="crispEdges"/><rect fill="#000000" x="1378.6" y="513.9" width="12.2" height="24.65" shape-rendering="crispEdges"/><rect fill="#1e1e1e" x="1390.8" y="513.9" width="12.2" height="24.65" shape-rendering="crispEdges"/><rect fill="#1e1e1e" x="0" y="538.3" width="12.2" height="24.65" shape-rendering="crispEdges"/><rect fill="#1e1e1e" x="12.2" y="538.3" width="48.8" height="24.65" shape-rendering="crispEdges"/><rect fill="#1e1e1e" x="61" y="538.3" width="48.8" height="24.65" shape-rendering="crispEdges"/><rect fill="#1e1e1e" x="109.8" y="538.3" width="1268.8" height="24.65" shape-rendering="crispEdges"/><rect fill="#000000" x="1378.6" y="538.3" width="12.2" height="24.65" shape-rendering="crispEdges"/><rect fill="#1e1e1e" x="1390.8" y="538.3" width="12.2" height="24.65" shape-rendering="crispEdges"/><rect fill="#1e1e1e" x="0" y="562.7" width="12.2" height="24.65" shape-rendering="crispEdges"/><rect fill="#1e1e1e" x="12.2" y="562.7" width="1366.4" height="24.65" shape-rendering="crispEdges"/><rect fill="#000000" x="1378.6" y="562.7" width="12.2" height="24.65" shape-rendering="crispEdges"/><rect fill="#1e1e1e" x="1390.8" y="562.7" width="12.2" height="24.65" shape-rendering="crispEdges"/><rect fill="#1e1e1e" x="0" y="587.1" width="12.2" height="24.65" shape-rendering="crispEdges"/><rect fill="#1e1e1e" x="12.2" y="587.1" width="1366.4" height="24.65" shape-rendering="crispEdges"/><rect fill="#000000" x="1378.6" y="587.1" width="12.2" height="24.65" shape-rendering="crispEdges"/><rect fill="#1e1e1e" x="1390.8" y="587.1" width="12.2" height="24.65" shape-rendering="crispEdges"/><rect fill="#1e1e1e" x="0" y="611.5" width="12.2" height="24.65" shape-rendering="crispEdges"/><rect fill="#1e1e1e" x="12.2" y="611.5" width="1366.4" height="24.65" shape-rendering="crispEdges"/><rect fill="#000000" x="1378.6" y="611.5" width="12.2" height="24.65" shape-rendering="crispEdges"/><rect fill="#1e1e1e" x="1390.8" y="611.5" width="12.2" height="24.65" shape-rendering="crispEdges"/><rect fill="#1e1e1e" x="0" y="635.9" width="12.2" height="24.65" shape-rendering="crispEdges"/><rect fill="#1e1e1e" x="12.2" y="635.9" width="1366.4" height="24.65" shape-rendering="crispEdges"/><rect fill="#000000" x="1378.6" y="635.9" width="12.2" height="24.65" shape-rendering="crispEdges"/><rect fill="#1e1e1e" x="1390.8" y="635.9" width="12.2" height="24.65" shape-rendering="crispEdges"/><rect fill="#1e1e1e" x="0" y="660.3" width="12.2" height="24.65" shape-rendering="crispEdges"/><rect fill="#1e1e1e" x="12.2" y="660.3" width="1378.6" height="24.65" shape-rendering="crispEdges"/><rect fill="#1e1e1e" x="1390.8" y="660.3" width="12.2" height="24.65" shape-rendering="crispEdges"/><rect fill="#121212" x="0" y="684.7" width="12.2" height="24.65" shape-rendering="crispEdges"/><rect fill="#1e1e1e" x="12.2" y="684.7" width="36.6" height="24.65" shape-rendering="crispEdges"/><rect fill="#272727" x="48.8" y="684.7" width="24.4" height="24.65" shape-rendering="crispEdges"/><rect fill="#e0e0e0" x="73.2" y="684.7" width="12.2" height="24.65" shape-rendering="crispEdges"/><rect fill="#272727" x="85.4" y="684.7" width="378.2" height="24.65" shape-rendering="crispEdges"/><rect fill="#272727" x="463.6" y="684.7" width="329.4" height="24.65" shape-rendering="crispEdges"/><rect fill="#272727" x="793" y="684.7" width="24.4" height="24.65" shape-rendering="crispEdges"/><rect fill="#121212" x="817.4" y="684.7" width="12.2" height="24.65" shape-rendering="crispEdges"/><rect fill="#9370db" x="829.6" y="684.7" width="134.2" height="24.65" shape-rendering="crispEdges"/><rect fill="#121212" x="963.8" y="684.7" width="12.2" height="24.65" shape-rendering="crispEdges"/><rect fill="#9370db" x="976" y="684.7" width="109.8" height="24.65" shape-rendering="crispEdges"/><rect fill="#121212" x="1085.8" y="684.7" width="12.2" height="24.65" shape-rendering="crispEdges"/><rect fill="#9370db" x="1098" y="684.7" width="73.2" height="24.65" shape-rendering="crispEdges"/><rect fill="#121212" x="1171.2" y="684.7" width="24.4" height="24.65" shape-rendering="crispEdges"/><rect fill="#ba55d3" x="1195.6" y="684.7" width="61" height="24.65" shape-rendering="crispEdges"/><rect fill="#121212" x="1256.6" y="684.7" width="12.2" height="24.65" shape-rendering="crispEdges"/><rect fill="#1e90ff" x="1268.8" y="684.7" width="48.8" height="24.65" shape-rendering="crispEdges"/><rect fill="#121212" x="1317.6" y="684.7" width="12.2" height="24.65" shape-rendering="crispEdges"/><rect fill="#dc143c" x="1329.8" y="684.7" width="73.2" height="24.65" shape-rendering="crispEdges"/>
    <g class="terminal-863634909-matrix">
    <text class="terminal-863634909-r2" x="24.4" y="20" textLength="36.6" clip-path="url(#terminal-863634909-line-0)">&#160;?&#160;</text><text class="terminal-863634909-r2" x="97.6" y="20" textLength="61" clip-path="url(#terminal-863634909-line-0)">&#160;Cfg&#160;</text><text class="terminal-863634909-r2" x="195.2" y="20" textLength="61" clip-path="url(#terminal-863634909-line-0)">&#160;Run&#160;</text><text class="terminal-863634909-r2" x="292.8" y="20" textLength="85.4" clip-path="url(#terminal-863634909-line-0)">&#160;Proto&#160;</text><text class="terminal-863634909-r2" x="597.8" y="20" textLength="158.6" clip-path="url(#terminal-863634909-line-0)">&#160;Demo&#160;Device&#160;</text><text class="terminal-863634909-r2" x="988.2" y="20" textLength="231.8" clip-path="url(#terminal-863634909-line-0)">&#160;[DEMO&#160;115200&#160;N81]&#160;</text><text class="terminal-863634909-r2" x="1256.6" y="20" textLength="134.2" clip-path="url(#terminal-863634909-line-0)">&#160;Connected&#160;</text><text class="terminal-863634909-r1" x="1403" y="20" textLength="12.2" clip-path="url(#terminal-863634909-line-0)">
</text><text class="terminal-863634909-r4" x="0" y="44.4" textLength="12.2" clip-path="url(#terminal-863634909-line-1)">┌</text><text class="terminal-863634909-r4" x="12.2" y="44.4" textLength="1378.6" clip-path="url(#terminal-863634909-line-1)">─────────────────────────────────────────────────────────────────────────────────────────────────────────────────</text><text class="terminal-863634909-r4" x="1390.8" y="44.4" textLength="12.2" clip-path="url(#terminal-863634909-line-1)">┐</text><text class="terminal-863634909-r1" x="1403" y="44.4" textLength="12.2" clip-path="url(#terminal-863634909-line-1)">
</text><text class="terminal-863634909-r4" x="0" y="68.8" textLength="12.2" clip-path="url(#terminal-863634909-line-2)">│</text><text class="terminal-863634909-r5" x="12.2" y="68.8" textLength="85.4" clip-path="url(#terminal-863634909-line-2)">&gt;&#160;!info</text><text class="terminal-863634909-r4" x="1390.8" y="68.8" textLength="12.2" clip-path="url(#terminal-863634909-line-2)">│</text><text class="terminal-863634909-r1" x="1403" y="68.8" textLength="12.2" clip-path="url(#terminal-863634909-line-2)">
</text><text class="terminal-863634909-r4" x="0" y="93.2" textLength="12.2" clip-path="url(#terminal-863634909-line-3)">│</text><text class="terminal-863634909-r7" x="12.2" y="93.2" textLength="61" clip-path="url(#terminal-863634909-line-3)">demo/</text><text class="terminal-863634909-r4" x="1390.8" y="93.2" textLength="12.2" clip-path="url(#terminal-863634909-line-3)">│</text><text class="terminal-863634909-r1" x="1403" y="93.2" textLength="12.2" clip-path="url(#terminal-863634909-line-3)">
</text><text class="terminal-863634909-r4" x="0" y="117.6" textLength="12.2" clip-path="url(#terminal-863634909-line-4)">│</text><text class="terminal-863634909-r8" x="12.2" y="117.6" textLength="48.8" clip-path="url(#terminal-863634909-line-4)">├──&#160;</text><text class="terminal-863634909-r9" x="61" y="117.6" textLength="109.8" clip-path="url(#terminal-863634909-line-4)">demo.json</text><text class="terminal-863634909-r4" x="1390.8" y="117.6" textLength="12.2" clip-path="url(#terminal-863634909-line-4)">│</text><text class="terminal-863634909-r1" x="1403" y="117.6" textLength="12.2" clip-path="url(#terminal-863634909-line-4)">
</text><text class="terminal-863634909-r4" x="0" y="142" textLength="12.2" clip-path="url(#terminal-863634909-line-5)">│</text><text class="terminal-863634909-r8" x="12.2" y="142" textLength="48.8" clip-path="url(#terminal-863634909-line-5)">├──&#160;</text><text class="terminal-863634909-r9" x="61" y="142" textLength="97.6" clip-path="url(#terminal-863634909-line-5)">demo.log</text><text class="terminal-863634909-r4" x="1390.8" y="142" textLength="12.2" clip-path="url(#terminal-863634909-line-5)">│</text><text class="terminal-863634909-r1" x="1403" y="142" textLength="12.2" clip-path="url(#terminal-863634909-line-5)">
</text><text class="terminal-863634909-r4" x="0" y="166.4" textLength="12.2" clip-path="url(#terminal-863634909-line-6)">│</text><text class="terminal-863634909-r8" x="12.2" y="166.4" textLength="48.8" clip-path="url(#terminal-863634909-line-6)">├──&#160;</text><text class="terminal-863634909-r7" x="61" y="166.4" textLength="97.6" clip-path="url(#terminal-863634909-line-6)">scripts/</text><text class="terminal-863634909-r4" x="1390.8" y="166.4" textLength="12.2" clip-path="url(#terminal-863634909-line-6)">│</text><text class="terminal-863634909-r1" x="1403" y="166.4" textLength="12.2" clip-path="url(#terminal-863634909-line-6)">
</text><text class="terminal-863634909-r4" x="0" y="190.8" textLength="12.2" clip-path="url(#terminal-863634909-line-7)">│</text><text class="terminal-863634909-r8" x="12.2" y="190.8" textLength="97.6" clip-path="url(#terminal-863634909-line-7)">│&#160;&#160;&#160;├──&#160;</text><text class="terminal-863634909-r9" x="109.8" y="190.8" textLength="134.2" clip-path="url(#terminal-863634909-line-7)">at_demo.run</text><text class="terminal-863634909-r4" x="1390.8" y="190.8" textLength="12.2" clip-path="url(#terminal-863634909-line-7)">│</text><text class="terminal-863634909-r1" x="1403" y="190.8" textLength="12.2" clip-path="url(#terminal-863634909-line-7)">
</text><text class="terminal-863634909-r4" x="0" y="215.2" textLength="12.2" clip-path="url(#terminal-863634909-line-8)">│</text><text class="terminal-863634909-r8" x="12.2" y="215.2" textLength="97.6" clip-path="url(#terminal-863634909-line-8)">│&#160;&#160;&#160;├──&#160;</text><text class="terminal-863634909-r9" x="109.8" y="215.2" textLength="170.8" clip-path="url(#terminal-863634909-line-8)">smoke_test.run</text><text class="terminal-863634909-r4" x="1390.8" y="215.2" textLength="12.2" clip-path="url(#terminal-863634909-line-8)">│</text><text class="terminal-863634909-r1" x="1403" y="215.2" textLength="12.2" clip-path="url(#terminal-863634909-line-8)">
</text><text class="terminal-863634909-r4" x="0" y="239.6" textLength="12.2" clip-path="url(#terminal-863634909-line-9)">│</text><text class="terminal-863634909-r8" x="12.2" y="239.6" textLength="97.6" clip-path="url(#terminal-863634909-line-9)">│&#160;&#160;&#160;└──&#160;</text><text class="terminal-863634909-r9" x="109.8" y="239.6" textLength="195.2" clip-path="url(#terminal-863634909-line-9)">status_check.run</text><text class="terminal-863634909-r4" x="1390.8" y="239.6" textLength="12.2" clip-path="url(#terminal-863634909-line-9)">│</text><text class="terminal-863634909-r1" x="1403" y="239.6" textLength="12.2" clip-path="url(#terminal-863634909-line-9)">
</text><text class="terminal-863634909-r4" x="0" y="264" textLength="12.2" clip-path="url(#terminal-863634909-line-10)">│</text><text class="terminal-863634909-r8" x="12.2" y="264" textLength="48.8" clip-path="url(#terminal-863634909-line-10)">├──&#160;</text><text class="terminal-863634909-r7" x="61" y="264" textLength="73.2" clip-path="url(#terminal-863634909-line-10)">proto/</text><text class="terminal-863634909-r4" x="1390.8" y="264" textLength="12.2" clip-path="url(#terminal-863634909-line-10)">│</text><text class="terminal-863634909-r1" x="1403" y="264" textLength="12.2" clip-path="url(#terminal-863634909-line-10)">
</text><text class="terminal-863634909-r4" x="0" y="288.4" textLength="12.2" clip-path="url(#terminal-863634909-line-11)">│</text><text class="terminal-863634909-r8" x="12.2" y="288.4" textLength="97.6" clip-path="url(#terminal-863634909-line-11)">│&#160;&#160;&#160;├──&#160;</text><text class="terminal-863634909-r9" x="109.8" y="288.4" textLength="134.2" clip-path="url(#terminal-863634909-line-11)">at_test.pro</text><text class="terminal-863634909-r4" x="1390.8" y="288.4" textLength="12.2" clip-path="url(#terminal-863634909-line-11)">│</text><text class="terminal-863634909-r1" x="1403" y="288.4" textLength="12.2" clip-path="url(#terminal-863634909-line-11)">
</text><text class="terminal-863634909-r4" x="0" y="312.8" textLength="12.2" clip-path="url(#terminal-863634909-line-12)">│</text><text class="terminal-863634909-r8" x="12.2" y="312.8" textLength="97.6" clip-path="url(#terminal-863634909-line-12)">│&#160;&#160;&#160;└──&#160;</text><text class="terminal-863634909-r9" x="109.8" y="312.8" textLength="183" clip-path="url(#terminal-863634909-line-12)">modbus_test.pro</text><text class="terminal-863634909-r4" x="1390.8" y="312.8" textLength="12.2" clip-path="url(#terminal-863634909-line-12)">│</text><text class="terminal-863634909-r1" x="1403" y="312.8" textLength="12.2" clip-path="url(#terminal-863634909-line-12)">
</text><text class="terminal-863634909-r4" x="0" y="337.2" textLength="12.2" clip-path="url(#terminal-863634909-line-13)">│</text><text class="terminal-863634909-r8" x="12.2" y="337.2" textLength="48.8" clip-path="url(#terminal-863634909-line-13)">├──&#160;</text><text class="terminal-863634909-r7" x="61" y="337.2" textLength="97.6" clip-path="url(#terminal-863634909-line-13)">plugins/</text><text class="terminal-863634909-r4" x="1390.8" y="337.2" textLength="12.2" clip-path="url(#terminal-863634909-line-13)">│</text><text class="terminal-863634909-r1" x="1403" y="337.2" textLength="12.2" clip-path="url(#terminal-863634909-line-13)">
</text><text class="terminal-863634909-r4" x="0" y="361.6" textLength="12.2" clip-path="url(#terminal-863634909-line-14)">│</text><text class="terminal-863634909-r8" x="12.2" y="361.6" textLength="48.8" clip-path="url(#terminal-863634909-line-14)">├──&#160;</text><text class="terminal-863634909-r7" x="61" y="361.6" textLength="36.6" clip-path="url(#terminal-863634909-line-14)">ss/</text><text class="terminal-863634909-r4" x="1390.8" y="361.6" textLength="12.2" clip-path="url(#terminal-863634909-line-14)">│</text><text class="terminal-863634909-r1" x="1403" y="361.6" textLength="12.2" clip-path="url(#terminal-863634909-line-14)">
</text><text class="terminal-863634909-r4" x="0" y="386" textLength="12.2" clip-path="url(#terminal-863634909-line-15)">│</text><text class="terminal-863634909-r8" x="12.2" y="386" textLength="97.6" clip-path="url(#terminal-863634909-line-15)">│&#160;&#160;&#160;├──&#160;</text><text class="terminal-863634909-r9" x="109.8" y="386" textLength="353.8" clip-path="url(#terminal-863634909-line-15)">s1_1_help_20260309_074447.svg</text><text class="terminal-863634909-r4" x="1390.8" y="386" textLength="12.2" clip-path="url(#terminal-863634909-line-15)">│</text><text class="terminal-863634909-r1" x="1403" y="386" textLength="12.2" clip-path="url(#terminal-863634909-line-15)">
</text><text class="terminal-863634909-r4" x="0" y="410.4" textLength="12.2" clip-path="url(#terminal-863634909-line-16)">│</text><text class="terminal-863634909-r8" x="12.2" y="410.4" textLength="97.6" clip-path="url(#terminal-863634909-line-16)">│&#160;&#160;&#160;├──&#160;</text><text class="terminal-863634909-r9" x="109.8" y="410.4" textLength="353.8" clip-path="url(#terminal-863634909-line-16)">s1_1_help_20260309_074447.txt</text><text class="terminal-863634909-r4" x="1390.8" y="410.4" textLength="12.2" clip-path="url(#terminal-863634909-line-16)">│</text><text class="terminal-863634909-r1" x="1403" y="410.4" textLength="12.2" clip-path="url(#terminal-863634909-line-16)">
</text><text class="terminal-863634909-r4" x="0" y="434.8" textLength="12.2" clip-path="url(#terminal-863634909-line-17)">│</text><text class="terminal-863634909-r8" x="12.2" y="434.8" textLength="97.6" clip-path="url(#terminal-863634909-line-17)">│&#160;&#160;&#160;├──&#160;</text><text class="terminal-863634909-r9" x="109.8" y="434.8" textLength="353.8" clip-path="url(#terminal-863634909-line-17)">s1_1_help_20260309_084331.svg</text><text class="terminal-863634909-r4" x="1390.8" y="434.8" textLength="12.2" clip-path="url(#terminal-863634909-line-17)">│</text><text class="terminal-863634909-r1" x="1403" y="434.8" textLength="12.2" clip-path="url(#terminal-863634909-line-17)">
</text><text class="terminal-863634909-r4" x="0" y="459.2" textLength="12.2" clip-path="url(#terminal-863634909-line-18)">│</text><text class="terminal-863634909-r8" x="12.2" y="459.2" textLength="97.6" clip-path="url(#terminal-863634909-line-18)">│&#160;&#160;&#160;├──&#160;</text><text class="terminal-863634909-r9" x="109.8" y="459.2" textLength="353.8" clip-path="url(#terminal-863634909-line-18)">s1_1_help_20260309_084331.txt</text><text class="terminal-863634909-r4" x="1390.8" y="459.2" textLength="12.2" clip-path="url(#terminal-863634909-line-18)">│</text><text class="terminal-863634909-r1" x="1403" y="459.2" textLength="12.2" clip-path="url(#terminal-863634909-line-18)">
</text><text class="terminal-863634909-r4" x="0" y="483.6" textLength="12.2" clip-path="url(#terminal-863634909-line-19)">│</text><text class="terminal-863634909-r8" x="12.2" y="483.6" textLength="97.6" clip-path="url(#terminal-863634909-line-19)">│&#160;&#160;&#160;├──&#160;</text><text class="terminal-863634909-r9" x="109.8" y="483.6" textLength="353.8" clip-path="url(#terminal-863634909-line-19)">s1_1_help_20260309_123219.svg</text><text class="terminal-863634909-r4" x="1390.8" y="483.6" textLength="12.2" clip-path="url(#terminal-863634909-line-19)">│</text><text class="terminal-863634909-r1" x="1403" y="483.6" textLength="12.2" clip-path="url(#terminal-863634909-line-19)">
</text><text class="terminal-863634909-r4" x="0" y="508" textLength="12.2" clip-path="url(#terminal-863634909-line-20)">│</text><text class="terminal-863634909-r8" x="12.2" y="508" textLength="97.6" clip-path="url(#terminal-863634909-line-20)">│&#160;&#160;&#160;├──&#160;</text><text class="terminal-863634909-r9" x="109.8" y="508" textLength="353.8" clip-path="url(#terminal-863634909-line-20)">s1_1_help_20260309_123219.txt</text><text class="terminal-863634909-r4" x="1390.8" y="508" textLength="12.2" clip-path="url(#terminal-863634909-line-20)">│</text><text class="terminal-863634909-r1" x="1403" y="508" textLength="12.2" clip-path="url(#terminal-863634909-line-20)">
</text><text class="terminal-863634909-r4" x="0" y="532.4" textLength="12.2" clip-path="url(#terminal-863634909-line-21)">│</text><text class="terminal-863634909-r8" x="12.2" y="532.4" textLength="97.6" clip-path="url(#terminal-863634909-line-21)">│&#160;&#160;&#160;└──&#160;</text><text class="terminal-863634909-r9" x="109.8" y="532.4" textLength="366" clip-path="url(#terminal-863634909-line-21)">screenshot_20260309_130220.svg</text><text class="terminal-863634909-r4" x="1390.8" y="532.4" textLength="12.2" clip-path="url(#terminal-863634909-line-21)">│</text><text class="terminal-863634909-r1" x="1403" y="532.4" textLength="12.2" clip-path="url(#terminal-863634909-line-21)">
</text><text class="terminal-863634909-r4" x="0" y="556.8" textLength="12.2" clip-path="url(#terminal-863634909-line-22)">│</text><text class="terminal-863634909-r8" x="12.2" y="556.8" textLength="48.8" clip-path="url(#terminal-863634909-line-22)">└──&#160;</text><text class="terminal-863634909-r7" x="61" y="556.8" textLength="48.8" clip-path="url(#terminal-863634909-line-22)">viz/</text><text class="terminal-863634909-r4" x="1390.8" y="556.8" textLength="12.2" clip-path="url(#terminal-863634909-line-22)">│</text><text class="terminal-863634909-r1" x="1403" y="556.8" textLength="12.2" clip-path="url(#terminal-863634909-line-22)">
</text><text class="terminal-863634909-r4" x="0" y="581.2" textLength="12.2" clip-path="url(#terminal-863634909-line-23)">│</text><text class="terminal-863634909-r4" x="1390.8" y="581.2" textLength="12.2" clip-path="url(#terminal-863634909-line-23)">│</text><text class="terminal-863634909-r1" x="1403" y="581.2" textLength="12.2" clip-path="url(#terminal-863634909-line-23)">
</text><text class="terminal-863634909-r4" x="0" y="605.6" textLength="12.2" clip-path="url(#terminal-863634909-line-24)">│</text><text class="terminal-863634909-r4" x="1390.8" y="605.6" textLength="12.2" clip-path="url(#terminal-863634909-line-24)">│</text><text class="terminal-863634909-r1" x="1403" y="605.6" textLength="12.2" clip-path="url(#terminal-863634909-line-24)">
</text><text class="terminal-863634909-r4" x="0" y="630" textLength="12.2" clip-path="url(#terminal-863634909-line-25)">│</text><text class="terminal-863634909-r4" x="1390.8" y="630" textLength="12.2" clip-path="url(#terminal-863634909-line-25)">│</text><text class="terminal-863634909-r1" x="1403" y="630" textLength="12.2" clip-path="url(#terminal-863634909-line-25)">
</text><text class="terminal-863634909-r4" x="0" y="654.4" textLength="12.2" clip-path="url(#terminal-863634909-line-26)">│</text><text class="terminal-863634909-r4" x="1390.8" y="654.4" textLength="12.2" clip-path="url(#terminal-863634909-line-26)">│</text><text class="terminal-863634909-r1" x="1403" y="654.4" textLength="12.2" clip-path="url(#terminal-863634909-line-26)">
</text><text class="terminal-863634909-r4" x="0" y="678.8" textLength="12.2" clip-path="url(#terminal-863634909-line-27)">└</text><text class="terminal-863634909-r4" x="12.2" y="678.8" textLength="1378.6" clip-path="url(#terminal-863634909-line-27)">─────────────────────────────────────────────────────────────────────────────────────────────────────────────────</text><text class="terminal-863634909-r4" x="1390.8" y="678.8" textLength="12.2" clip-path="url(#terminal-863634909-line-27)">┘</text><text class="terminal-863634909-r1" x="1403" y="678.8" textLength="12.2" clip-path="url(#terminal-863634909-line-27)">
</text><text class="terminal-863634909-r2" x="12.2" y="703.2" textLength="36.6" clip-path="url(#terminal-863634909-line-28)">&#160;!&#160;</text><text class="terminal-863634909-r10" x="73.2" y="703.2" textLength="12.2" clip-path="url(#terminal-863634909-line-28)">R</text><text class="terminal-863634909-r11" x="85.4" y="703.2" textLength="378.2" clip-path="url(#terminal-863634909-line-28)">EPL:type&#160;command,&#160;Enter&#160;to&#160;send</text><text class="terminal-863634909-r2" x="829.6" y="703.2" textLength="134.2" clip-path="url(#terminal-863634909-line-28)">&#160;Demo&#160;Help&#160;</text><text class="terminal-863634909-r2" x="976" y="703.2" textLength="109.8" clip-path="url(#terminal-863634909-line-28)">&#160;AT&#160;Demo&#160;</text><text class="terminal-863634909-r2" x="1098" y="703.2" textLength="73.2" clip-path="url(#terminal-863634909-line-28)">&#160;Info&#160;</text><text class="terminal-863634909-r2" x="1195.6" y="703.2" textLength="61" clip-path="url(#terminal-863634909-line-28)">&#160;Log&#160;</text><text class="terminal-863634909-r2" x="1268.8" y="703.2" textLength="48.8" clip-path="url(#terminal-863634909-line-28)">&#160;SS&#160;</text><text class="terminal-863634909-r2" x="1329.8" y="703.2" textLength="73.2" clip-path="url(#terminal-863634909-line-28)">&#160;Exit&#160;</text>
    </g>
    </g>
</svg>
