<svg class="rich-terminal" viewBox="0 0 1238 830.8" xmlns="http://www.w3.org/2000/svg">
    <!-- Generated with Rich https://www.textualize.io -->
    <style>

    @font-face {
        font-family: "Fira Code";
        src: local("FiraCode-Regular"),
                url("https://cdnjs.cloudflare.com/ajax/libs/firacode/6.2.0/woff2/FiraCode-Regular.woff2") format("woff2"),
                url("https://cdnjs.cloudflare.com/ajax/libs/firacode/6.2.0/woff/FiraCode-Regular.woff") format("woff");
        font-style: normal;
        font-weight: 400;
    }
    @font-face {
        font-family: "Fira Code";
        src: local("FiraCode-Bold"),
                url("https://cdnjs.cloudflare.com/ajax/libs/firacode/6.2.0/woff2/FiraCode-Bold.woff2") format("woff2"),
                url("https://cdnjs.cloudflare.com/ajax/libs/firacode/6.2.0/woff/FiraCode-Bold.woff") format("woff");
        font-style: bold;
        font-weight: 700;
    }

    .terminal-2815211129-matrix {
        font-family: Fira Code, monospace;
        font-size: 20px;
        line-height: 24.4px;
        font-variant-east-asian: full-width;
    }

    .terminal-2815211129-title {
        font-size: 18px;
        font-weight: bold;
        font-family: arial;
    }

    .terminal-2815211129-r1 { fill: #c5c8c6 }
.terminal-2815211129-r2 { fill: #e0e0e0;font-weight: bold }
.terminal-2815211129-r3 { fill: #ffffff }
.terminal-2815211129-r4 { fill: #0000ff }
.terminal-2815211129-r5 { fill: #e0e0e0 }
.terminal-2815211129-r6 { fill: #9d65ff }
.terminal-2815211129-r7 { fill: #af00ff }
.terminal-2815211129-r8 { fill: #121212 }
    </style>

    <defs>
    <clipPath id="terminal-2815211129-clip-terminal">
      <rect x="0" y="0" width="1219.0" height="779.8" />
    </clipPath>
    <clipPath id="terminal-2815211129-line-0">
    <rect x="0" y="1.5" width="1220" height="24.65"/>
            </clipPath>
<clipPath id="terminal-2815211129-line-1">
    <rect x="0" y="25.9" width="1220" height="24.65"/>
            </clipPath>
<clipPath id="terminal-2815211129-line-2">
    <rect x="0" y="50.3" width="1220" height="24.65"/>
            </clipPath>
<clipPath id="terminal-2815211129-line-3">
    <rect x="0" y="74.7" width="1220" height="24.65"/>
            </clipPath>
<clipPath id="terminal-2815211129-line-4">
    <rect x="0" y="99.1" width="1220" height="24.65"/>
            </clipPath>
<clipPath id="terminal-2815211129-line-5">
    <rect x="0" y="123.5" width="1220" height="24.65"/>
            </clipPath>
<clipPath id="terminal-2815211129-line-6">
    <rect x="0" y="147.9" width="1220" height="24.65"/>
            </clipPath>
<clipPath id="terminal-2815211129-line-7">
    <rect x="0" y="172.3" width="1220" height="24.65"/>
            </clipPath>
<clipPath id="terminal-2815211129-line-8">
    <rect x="0" y="196.7" width="1220" height="24.65"/>
            </clipPath>
<clipPath id="terminal-2815211129-line-9">
    <rect x="0" y="221.1" width="1220" height="24.65"/>
            </clipPath>
<clipPath id="terminal-2815211129-line-10">
    <rect x="0" y="245.5" width="1220" height="24.65"/>
            </clipPath>
<clipPath id="terminal-2815211129-line-11">
    <rect x="0" y="269.9" width="1220" height="24.65"/>
            </clipPath>
<clipPath id="terminal-2815211129-line-12">
    <rect x="0" y="294.3" width="1220" height="24.65"/>
            </clipPath>
<clipPath id="terminal-2815211129-line-13">
    <rect x="0" y="318.7" width="1220" height="24.65"/>
            </clipPath>
<clipPath id="terminal-2815211129-line-14">
    <rect x="0" y="343.1" width="1220" height="24.65"/>
            </clipPath>
<clipPath id="terminal-2815211129-line-15">
    <rect x="0" y="367.5" width="1220" height="24.65"/>
            </clipPath>
<clipPath id="terminal-2815211129-line-16">
    <rect x="0" y="391.9" width="1220" height="24.65"/>
            </clipPath>
<clipPath id="terminal-2815211129-line-17">
    <rect x="0" y="416.3" width="1220" height="24.65"/>
            </clipPath>
<clipPath id="terminal-2815211129-line-18">
    <rect x="0" y="440.7" width="1220" height="24.65"/>
            </clipPath>
<clipPath id="terminal-2815211129-line-19">
    <rect x="0" y="465.1" width="1220" height="24.65"/>
            </clipPath>
<clipPath id="terminal-2815211129-line-20">
    <rect x="0" y="489.5" width="1220" height="24.65"/>
            </clipPath>
<clipPath id="terminal-2815211129-line-21">
    <rect x="0" y="513.9" width="1220" height="24.65"/>
            </clipPath>
<clipPath id="terminal-2815211129-line-22">
    <rect x="0" y="538.3" width="1220" height="24.65"/>
            </clipPath>
<clipPath id="terminal-2815211129-line-23">
    <rect x="0" y="562.7" width="1220" height="24.65"/>
            </clipPath>
<clipPath id="terminal-2815211129-line-24">
    <rect x="0" y="587.1" width="1220" height="24.65"/>
            </clipPath>
<clipPath id="terminal-2815211129-line-25">
    <rect x="0" y="611.5" width="1220" height="24.65"/>
            </clipPath>
<clipPath id="terminal-2815211129-line-26">
    <rect x="0" y="635.9" width="1220" height="24.65"/>
            </clipPath>
<clipPath id="terminal-2815211129-line-27">
    <rect x="0" y="660.3" width="1220" height="24.65"/>
            </clipPath>
<clipPath id="terminal-2815211129-line-28">
    <rect x="0" y="684.7" width="1220" height="24.65"/>
            </clipPath>
<clipPath id="terminal-2815211129-line-29">
    <rect x="0" y="709.1" width="1220" height="24.65"/>
            </clipPath>
<clipPath id="terminal-2815211129-line-30">
    <rect x="0" y="733.5" width="1220" height="24.65"/>
            </clipPath>
    </defs>

    <rect fill="#292929" stroke="rgba(255,255,255,0.35)" stroke-width="1" x="1" y="1" width="1236" height="828.8" rx="8"/><text class="terminal-2815211129-title" fill="#c5c8c6" text-anchor="middle" x="618" y="27">termapy</text>
            <g transform="translate(26,22)">
            <circle cx="0" cy="0" r="7" fill="#ff5f57"/>
            <circle cx="22" cy="0" r="7" fill="#febc2e"/>
            <circle cx="44" cy="0" r="7" fill="#28c840"/>
            </g>
        
    <g transform="translate(9, 41)" clip-path="url(#terminal-2815211129-clip-terminal)">
    <rect fill="#0000ff" x="0" y="1.5" width="12.2" height="24.65" shape-rendering="crispEdges"/><rect fill="#0178d4" x="12.2" y="1.5" width="12.2" height="24.65" shape-rendering="crispEdges"/><rect fill="#0178d4" x="24.4" y="1.5" width="36.6" height="24.65" shape-rendering="crispEdges"/><rect fill="#0178d4" x="61" y="1.5" width="12.2" height="24.65" shape-rendering="crispEdges"/><rect fill="#0000ff" x="73.2" y="1.5" width="12.2" height="24.65" shape-rendering="crispEdges"/><rect fill="#3498db" x="85.4" y="1.5" width="12.2" height="24.65" shape-rendering="crispEdges"/><rect fill="#3498db" x="97.6" y="1.5" width="61" height="24.65" shape-rendering="crispEdges"/><rect fill="#3498db" x="158.6" y="1.5" width="12.2" height="24.65" shape-rendering="crispEdges"/><rect fill="#0000ff" x="170.8" y="1.5" width="12.2" height="24.65" shape-rendering="crispEdges"/><rect fill="#3498db" x="183" y="1.5" width="12.2" height="24.65" shape-rendering="crispEdges"/><rect fill="#3498db" x="195.2" y="1.5" width="61" height="24.65" shape-rendering="crispEdges"/><rect fill="#3498db" x="256.2" y="1.5" width="12.2" height="24.65" shape-rendering="crispEdges"/><rect fill="#0000ff" x="268.4" y="1.5" width="0" height="24.65" shape-rendering="crispEdges"/><rect fill="#0000ff" x="268.4" y="1.5" width="85.4" height="24.65" shape-rendering="crispEdges"/><rect fill="#0000ff" x="353.8" y="1.5" width="12.2" height="24.65" shape-rendering="crispEdges"/><rect fill="#008000" x="366" y="1.5" width="12.2" height="24.65" shape-rendering="crispEdges"/><rect fill="#008000" x="378.2" y="1.5" width="85.4" height="24.65" shape-rendering="crispEdges"/><rect fill="#008000" x="463.6" y="1.5" width="97.6" height="24.65" shape-rendering="crispEdges"/><rect fill="#008000" x="561.2" y="1.5" width="85.4" height="24.65" shape-rendering="crispEdges"/><rect fill="#008000" x="646.6" y="1.5" width="12.2" height="24.65" shape-rendering="crispEdges"/><rect fill="#0000ff" x="658.8" y="1.5" width="0" height="24.65" shape-rendering="crispEdges"/><rect fill="#0000ff" x="658.8" y="1.5" width="85.4" height="24.65" shape-rendering="crispEdges"/><rect fill="#0000ff" x="744.2" y="1.5" width="12.2" height="24.65" shape-rendering="crispEdges"/><rect fill="#008000" x="756.4" y="1.5" width="12.2" height="24.65" shape-rendering="crispEdges"/><rect fill="#008000" x="768.6" y="1.5" width="231.8" height="24.65" shape-rendering="crispEdges"/><rect fill="#008000" x="1000.4" y="1.5" width="12.2" height="24.65" shape-rendering="crispEdges"/><rect fill="#0000ff" x="1012.6" y="1.5" width="12.2" height="24.65" shape-rendering="crispEdges"/><rect fill="#008000" x="1024.8" y="1.5" width="12.2" height="24.65" shape-rendering="crispEdges"/><rect fill="#008000" x="1037" y="1.5" width="12.2" height="24.65" shape-rendering="crispEdges"/><rect fill="#008000" x="1049.2" y="1.5" width="134.2" height="24.65" shape-rendering="crispEdges"/><rect fill="#008000" x="1183.4" y="1.5" width="24.4" height="24.65" shape-rendering="crispEdges"/><rect fill="#008000" x="1207.8" y="1.5" width="12.2" height="24.65" shape-rendering="crispEdges"/><rect fill="#1e1e1e" x="0" y="25.9" width="12.2" height="24.65" shape-rendering="crispEdges"/><rect fill="#1e1e1e" x="12.2" y="25.9" width="1195.6" height="24.65" shape-rendering="crispEdges"/><rect fill="#1e1e1e" x="1207.8" y="25.9" width="12.2" height="24.65" shape-rendering="crispEdges"/><rect fill="#1e1e1e" x="0" y="50.3" width="12.2" height="24.65" shape-rendering="crispEdges"/><rect fill="#1e1e1e" x="12.2" y="50.3" width="1183.4" height="24.65" shape-rendering="crispEdges"/><rect fill="#000000" x="1195.6" y="50.3" width="12.2" height="24.65" shape-rendering="crispEdges"/><rect fill="#1e1e1e" x="1207.8" y="50.3" width="12.2" height="24.65" shape-rendering="crispEdges"/><rect fill="#1e1e1e" x="0" y="74.7" width="12.2" height="24.65" shape-rendering="crispEdges"/><rect fill="#1e1e1e" x="12.2" y="74.7" width="170.8" height="24.65" shape-rendering="crispEdges"/><rect fill="#1e1e1e" x="183" y="74.7" width="1012.6" height="24.65" shape-rendering="crispEdges"/><rect fill="#000000" x="1195.6" y="74.7" width="12.2" height="24.65" shape-rendering="crispEdges"/><rect fill="#1e1e1e" x="1207.8" y="74.7" width="12.2" height="24.65" shape-rendering="crispEdges"/><rect fill="#1e1e1e" x="0" y="99.1" width="12.2" height="24.65" shape-rendering="crispEdges"/><rect fill="#1e1e1e" x="12.2" y="99.1" width="1183.4" height="24.65" shape-rendering="crispEdges"/><rect fill="#000000" x="1195.6" y="99.1" width="12.2" height="24.65" shape-rendering="crispEdges"/><rect fill="#1e1e1e" x="1207.8" y="99.1" width="12.2" height="24.65" shape-rendering="crispEdges"/><rect fill="#1e1e1e" x="0" y="123.5" width="12.2" height="24.65" shape-rendering="crispEdges"/><rect fill="#1e1e1e" x="12.2" y="123.5" width="61" height="24.65" shape-rendering="crispEdges"/><rect fill="#1e1e1e" x="73.2" y="123.5" width="1122.4" height="24.65" shape-rendering="crispEdges"/><rect fill="#000000" x="1195.6" y="123.5" width="12.2" height="24.65" shape-rendering="crispEdges"/><rect fill="#1e1e1e" x="1207.8" y="123.5" width="12.2" height="24.65" shape-rendering="crispEdges"/><rect fill="#1e1e1e" x="0" y="147.9" width="12.2" height="24.65" shape-rendering="crispEdges"/><rect fill="#1e1e1e" x="12.2" y="147.9" width="927.2" height="24.65" shape-rendering="crispEdges"/><rect fill="#1e1e1e" x="939.4" y="147.9" width="256.2" height="24.65" shape-rendering="crispEdges"/><rect fill="#000000" x="1195.6" y="147.9" width="12.2" height="24.65" shape-rendering="crispEdges"/><rect fill="#1e1e1e" x="1207.8" y="147.9" width="12.2" height="24.65" shape-rendering="crispEdges"/><rect fill="#1e1e1e" x="0" y="172.3" width="12.2" height="24.65" shape-rendering="crispEdges"/><rect fill="#1e1e1e" x="12.2" y="172.3" width="988.2" height="24.65" shape-rendering="crispEdges"/><rect fill="#1e1e1e" x="1000.4" y="172.3" width="195.2" height="24.65" shape-rendering="crispEdges"/><rect fill="#000000" x="1195.6" y="172.3" width="12.2" height="24.65" shape-rendering="crispEdges"/><rect fill="#1e1e1e" x="1207.8" y="172.3" width="12.2" height="24.65" shape-rendering="crispEdges"/><rect fill="#1e1e1e" x="0" y="196.7" width="12.2" height="24.65" shape-rendering="crispEdges"/><rect fill="#1e1e1e" x="12.2" y="196.7" width="988.2" height="24.65" shape-rendering="crispEdges"/><rect fill="#1e1e1e" x="1000.4" y="196.7" width="195.2" height="24.65" shape-rendering="crispEdges"/><rect fill="#000000" x="1195.6" y="196.7" width="12.2" height="24.65" shape-rendering="crispEdges"/><rect fill="#1e1e1e" x="1207.8" y="196.7" width="12.2" height="24.65" shape-rendering="crispEdges"/><rect fill="#1e1e1e" x="0" y="221.1" width="12.2" height="24.65" shape-rendering="crispEdges"/><rect fill="#1e1e1e" x="12.2" y="221.1" width="988.2" height="24.65" shape-rendering="crispEdges"/><rect fill="#1e1e1e" x="1000.4" y="221.1" width="195.2" height="24.65" shape-rendering="crispEdges"/><rect fill="#000000" x="1195.6" y="221.1" width="12.2" height="24.65" shape-rendering="crispEdges"/><rect fill="#1e1e1e" x="1207.8" y="221.1" width="12.2" height="24.65" shape-rendering="crispEdges"/><rect fill="#1e1e1e" x="0" y="245.5" width="12.2" height="24.65" shape-rendering="crispEdges"/><rect fill="#1e1e1e" x="12.2" y="245.5" width="988.2" height="24.65" shape-rendering="crispEdges"/><rect fill="#1e1e1e" x="1000.4" y="245.5" width="195.2" height="24.65" shape-rendering="crispEdges"/><rect fill="#000000" x="1195.6" y="245.5" width="12.2" height="24.65" shape-rendering="crispEdges"/><rect fill="#1e1e1e" x="1207.8" y="245.5" width="12.2" height="24.65" shape-rendering="crispEdges"/><rect fill="#1e1e1e" x="0" y="269.9" width="12.2" height="24.65" shape-rendering="crispEdges"/><rect fill="#1e1e1e" x="12.2" y="269.9" width="988.2" height="24.65" shape-rendering="crispEdges"/><rect fill="#1e1e1e" x="1000.4" y="269.9" width="195.2" height="24.65" shape-rendering="crispEdges"/><rect fill="#000000" x="1195.6" y="269.9" width="12.2" height="24.65" shape-rendering="crispEdges"/><rect fill="#1e1e1e" x="1207.8" y="269.9" width="12.2" height="24.65" shape-rendering="crispEdges"/><rect fill="#1e1e1e" x="0" y="294.3" width="12.2" height="24.65" shape-rendering="crispEdges"/><rect fill="#1e1e1e" x="12.2" y="294.3" width="988.2" height="24.65" shape-rendering="crispEdges"/><rect fill="#1e1e1e" x="1000.4" y="294.3" width="195.2" height="24.65" shape-rendering="crispEdges"/><rect fill="#000000" x="1195.6" y="294.3" width="12.2" height="24.65" shape-rendering="crispEdges"/><rect fill="#1e1e1e" x="1207.8" y="294.3" width="12.2" height="24.65" shape-rendering="crispEdges"/><rect fill="#1e1e1e" x="0" y="318.7" width="12.2" height="24.65" shape-rendering="crispEdges"/><rect fill="#1e1e1e" x="12.2" y="318.7" width="988.2" height="24.65" shape-rendering="crispEdges"/><rect fill="#1e1e1e" x="1000.4" y="318.7" width="195.2" height="24.65" shape-rendering="crispEdges"/><rect fill="#000000" x="1195.6" y="318.7" width="12.2" height="24.65" shape-rendering="crispEdges"/><rect fill="#1e1e1e" x="1207.8" y="318.7" width="12.2" height="24.65" shape-rendering="crispEdges"/><rect fill="#1e1e1e" x="0" y="343.1" width="12.2" height="24.65" shape-rendering="crispEdges"/><rect fill="#1e1e1e" x="12.2" y="343.1" width="988.2" height="24.65" shape-rendering="crispEdges"/><rect fill="#1e1e1e" x="1000.4" y="343.1" width="195.2" height="24.65" shape-rendering="crispEdges"/><rect fill="#000000" x="1195.6" y="343.1" width="12.2" height="24.65" shape-rendering="crispEdges"/><rect fill="#1e1e1e" x="1207.8" y="343.1" width="12.2" height="24.65" shape-rendering="crispEdges"/><rect fill="#1e1e1e" x="0" y="367.5" width="12.2" height="24.65" shape-rendering="crispEdges"/><rect fill="#1e1e1e" x="12.2" y="367.5" width="988.2" height="24.65" shape-rendering="crispEdges"/><rect fill="#1e1e1e" x="1000.4" y="367.5" width="195.2" height="24.65" shape-rendering="crispEdges"/><rect fill="#000000" x="1195.6" y="367.5" width="12.2" height="24.65" shape-rendering="crispEdges"/><rect fill="#1e1e1e" x="1207.8" y="367.5" width="12.2" height="24.65" shape-rendering="crispEdges"/><rect fill="#1e1e1e" x="0" y="391.9" width="12.2" height="24.65" shape-rendering="crispEdges"/><rect fill="#1e1e1e" x="12.2" y="391.9" width="988.2" height="24.65" shape-rendering="crispEdges"/><rect fill="#1e1e1e" x="1000.4" y="391.9" width="195.2" height="24.65" shape-rendering="crispEdges"/><rect fill="#000000" x="1195.6" y="391.9" width="12.2" height="24.65" shape-rendering="crispEdges"/><rect fill="#1e1e1e" x="1207.8" y="391.9" width="12.2" height="24.65" shape-rendering="crispEdges"/><rect fill="#1e1e1e" x="0" y="416.3" width="12.2" height="24.65" shape-rendering="crispEdges"/><rect fill="#1e1e1e" x="12.2" y="416.3" width="988.2" height="24.65" shape-rendering="crispEdges"/><rect fill="#1e1e1e" x="1000.4" y="416.3" width="195.2" height="24.65" shape-rendering="crispEdges"/><rect fill="#000000" x="1195.6" y="416.3" width="12.2" height="24.65" shape-rendering="crispEdges"/><rect fill="#1e1e1e" x="1207.8" y="416.3" width="12.2" height="24.65" shape-rendering="crispEdges"/><rect fill="#1e1e1e" x="0" y="440.7" width="12.2" height="24.65" shape-rendering="crispEdges"/><rect fill="#1e1e1e" x="12.2" y="440.7" width="988.2" height="24.65" shape-rendering="crispEdges"/><rect fill="#1e1e1e" x="1000.4" y="440.7" width="195.2" height="24.65" shape-rendering="crispEdges"/><rect fill="#000000" x="1195.6" y="440.7" width="12.2" height="24.65" shape-rendering="crispEdges"/><rect fill="#1e1e1e" x="1207.8" y="440.7" width="12.2" height="24.65" shape-rendering="crispEdges"/><rect fill="#1e1e1e" x="0" y="465.1" width="12.2" height="24.65" shape-rendering="crispEdges"/><rect fill="#1e1e1e" x="12.2" y="465.1" width="988.2" height="24.65" shape-rendering="crispEdges"/><rect fill="#1e1e1e" x="1000.4" y="465.1" width="195.2" height="24.65" shape-rendering="crispEdges"/><rect fill="#000000" x="1195.6" y="465.1" width="12.2" height="24.65" shape-rendering="crispEdges"/><rect fill="#1e1e1e" x="1207.8" y="465.1" width="12.2" height="24.65" shape-rendering="crispEdges"/><rect fill="#1e1e1e" x="0" y="489.5" width="12.2" height="24.65" shape-rendering="crispEdges"/><rect fill="#1e1e1e" x="12.2" y="489.5" width="988.2" height="24.65" shape-rendering="crispEdges"/><rect fill="#1e1e1e" x="1000.4" y="489.5" width="195.2" height="24.65" shape-rendering="crispEdges"/><rect fill="#000000" x="1195.6" y="489.5" width="12.2" height="24.65" shape-rendering="crispEdges"/><rect fill="#1e1e1e" x="1207.8" y="489.5" width="12.2" height="24.65" shape-rendering="crispEdges"/><rect fill="#1e1e1e" x="0" y="513.9" width="12.2" height="24.65" shape-rendering="crispEdges"/><rect fill="#1e1e1e" x="12.2" y="513.9" width="976" height="24.65" shape-rendering="crispEdges"/><rect fill="#1e1e1e" x="988.2" y="513.9" width="207.4" height="24.65" shape-rendering="crispEdges"/><rect fill="#000000" x="1195.6" y="513.9" width="12.2" height="24.65" shape-rendering="crispEdges"/><rect fill="#1e1e1e" x="1207.8" y="513.9" width="12.2" height="24.65" shape-rendering="crispEdges"/><rect fill="#1e1e1e" x="0" y="538.3" width="12.2" height="24.65" shape-rendering="crispEdges"/><rect fill="#1e1e1e" x="12.2" y="538.3" width="122" height="24.65" shape-rendering="crispEdges"/><rect fill="#1e1e1e" x="134.2" y="538.3" width="1061.4" height="24.65" shape-rendering="crispEdges"/><rect fill="#000000" x="1195.6" y="538.3" width="12.2" height="24.65" shape-rendering="crispEdges"/><rect fill="#1e1e1e" x="1207.8" y="538.3" width="12.2" height="24.65" shape-rendering="crispEdges"/><rect fill="#1e1e1e" x="0" y="562.7" width="12.2" height="24.65" shape-rendering="crispEdges"/><rect fill="#1e1e1e" x="12.2" y="562.7" width="1183.4" height="24.65" shape-rendering="crispEdges"/><rect fill="#000000" x="1195.6" y="562.7" width="12.2" height="24.65" shape-rendering="crispEdges"/><rect fill="#1e1e1e" x="1207.8" y="562.7" width="12.2" height="24.65" shape-rendering="crispEdges"/><rect fill="#1e1e1e" x="0" y="587.1" width="12.2" height="24.65" shape-rendering="crispEdges"/><rect fill="#1e1e1e" x="12.2" y="587.1" width="1183.4" height="24.65" shape-rendering="crispEdges"/><rect fill="#000000" x="1195.6" y="587.1" width="12.2" height="24.65" shape-rendering="crispEdges"/><rect fill="#1e1e1e" x="1207.8" y="587.1" width="12.2" height="24.65" shape-rendering="crispEdges"/><rect fill="#1e1e1e" x="0" y="611.5" width="12.2" height="24.65" shape-rendering="crispEdges"/><rect fill="#1e1e1e" x="12.2" y="611.5" width="1183.4" height="24.65" shape-rendering="crispEdges"/><rect fill="#000000" x="1195.6" y="611.5" width="12.2" height="24.65" shape-rendering="crispEdges"/><rect fill="#1e1e1e" x="1207.8" y="611.5" width="12.2" height="24.65" shape-rendering="crispEdges"/><rect fill="#1e1e1e" x="0" y="635.9" width="12.2" height="24.65" shape-rendering="crispEdges"/><rect fill="#1e1e1e" x="12.2" y="635.9" width="1183.4" height="24.65" shape-rendering="crispEdges"/><rect fill="#000000" x="1195.6" y="635.9" width="12.2" height="24.65" shape-rendering="crispEdges"/><rect fill="#1e1e1e" x="1207.8" y="635.9" width="12.2" height="24.65" shape-rendering="crispEdges"/><rect fill="#1e1e1e" x="0" y="660.3" width="12.2" height="24.65" shape-rendering="crispEdges"/><rect fill="#1e1e1e" x="12.2" y="660.3" width="1183.4" height="24.65" shape-rendering="crispEdges"/><rect fill="#000000" x="1195.6" y="660.3" width="12.2" height="24.65" shape-rendering="crispEdges"/><rect fill="#1e1e1e" x="1207.8" y="660.3" width="12.2" height="24.65" shape-rendering="crispEdges"/><rect fill="#1e1e1e" x="0" y="684.7" width="12.2" height="24.65" shape-rendering="crispEdges"/><rect fill="#1e1e1e" x="12.2" y="684.7" width="1183.4" height="24.65" shape-rendering="crispEdges"/><rect fill="#000000" x="1195.6" y="684.7" width="12.2" height="24.65" shape-rendering="crispEdges"/><rect fill="#1e1e1e" x="1207.8" y="684.7" width="12.2" height="24.65" shape-rendering="crispEdges"/><rect fill="#1e1e1e" x="0" y="709.1" width="12.2" height="24.65" shape-rendering="crispEdges"/><rect fill="#1e1e1e" x="12.2" y="709.1" width="1183.4" height="24.65" shape-rendering="crispEdges"/><rect fill="#000000" x="1195.6" y="709.1" width="12.2" height="24.65" shape-rendering="crispEdges"/><rect fill="#1e1e1e" x="1207.8" y="709.1" width="12.2" height="24.65" shape-rendering="crispEdges"/><rect fill="#1e1e1e" x="0" y="733.5" width="12.2" height="24.65" shape-rendering="crispEdges"/><rect fill="#1e1e1e" x="12.2" y="733.5" width="1195.6" height="24.65" shape-rendering="crispEdges"/><rect fill="#1e1e1e" x="1207.8" y="733.5" width="12.2" height="24.65" shape-rendering="crispEdges"/><rect fill="#121212" x="0" y="757.9" width="12.2" height="24.65" shape-rendering="crispEdges"/><rect fill="#1e1e1e" x="12.2" y="757.9" width="48.8" height="24.65" shape-rendering="crispEdges"/><rect fill="#272727" x="61" y="757.9" width="24.4" height="24.65" shape-rendering="crispEdges"/><rect fill="#272727" x="85.4" y="757.9" width="97.6" height="24.65" shape-rendering="crispEdges"/><rect fill="#e0e0e0" x="183" y="757.9" width="12.2" height="24.65" shape-rendering="crispEdges"/><rect fill="#272727" x="195.2" y="757.9" width="793" height="24.65" shape-rendering="crispEdges"/><rect fill="#272727" x="988.2" y="757.9" width="24.4" height="24.65" shape-rendering="crispEdges"/><rect fill="#9b59b6" x="1012.6" y="757.9" width="61" height="24.65" shape-rendering="crispEdges"/><rect fill="#121212" x="1073.6" y="757.9" width="12.2" height="24.65" shape-rendering="crispEdges"/><rect fill="#3498db" x="1085.8" y="757.9" width="48.8" height="24.65" shape-rendering="crispEdges"/><rect fill="#121212" x="1134.6" y="757.9" width="12.2" height="24.65" shape-rendering="crispEdges"/><rect fill="#e74c3c" x="1146.8" y="757.9" width="73.2" height="24.65" shape-rendering="crispEdges"/>
    <g class="terminal-2815211129-matrix">
    <text class="terminal-2815211129-r2" x="24.4" y="20" textLength="36.6" clip-path="url(#terminal-2815211129-line-0)">&#160;?&#160;</text><text class="terminal-2815211129-r2" x="97.6" y="20" textLength="61" clip-path="url(#terminal-2815211129-line-0)">&#160;Cfg&#160;</text><text class="terminal-2815211129-r2" x="195.2" y="20" textLength="61" clip-path="url(#terminal-2815211129-line-0)">&#160;Run&#160;</text><text class="terminal-2815211129-r2" x="463.6" y="20" textLength="97.6" clip-path="url(#terminal-2815211129-line-0)">&#160;IotDev&#160;</text><text class="terminal-2815211129-r2" x="768.6" y="20" textLength="231.8" clip-path="url(#terminal-2815211129-line-0)">&#160;[COM4&#160;115200&#160;N81]&#160;</text><text class="terminal-2815211129-r2" x="1049.2" y="20" textLength="134.2" clip-path="url(#terminal-2815211129-line-0)">&#160;Connected&#160;</text><text class="terminal-2815211129-r1" x="1220" y="20" textLength="12.2" clip-path="url(#terminal-2815211129-line-0)">
</text><text class="terminal-2815211129-r4" x="0" y="44.4" textLength="12.2" clip-path="url(#terminal-2815211129-line-1)">┌</text><text class="terminal-2815211129-r4" x="12.2" y="44.4" textLength="1195.6" clip-path="url(#terminal-2815211129-line-1)">──────────────────────────────────────────────────────────────────────────────────────────────────</text><text class="terminal-2815211129-r4" x="1207.8" y="44.4" textLength="12.2" clip-path="url(#terminal-2815211129-line-1)">┐</text><text class="terminal-2815211129-r1" x="1220" y="44.4" textLength="12.2" clip-path="url(#terminal-2815211129-line-1)">
</text><text class="terminal-2815211129-r4" x="0" y="68.8" textLength="12.2" clip-path="url(#terminal-2815211129-line-2)">│</text><text class="terminal-2815211129-r4" x="1207.8" y="68.8" textLength="12.2" clip-path="url(#terminal-2815211129-line-2)">│</text><text class="terminal-2815211129-r1" x="1220" y="68.8" textLength="12.2" clip-path="url(#terminal-2815211129-line-2)">
</text><text class="terminal-2815211129-r4" x="0" y="93.2" textLength="12.2" clip-path="url(#terminal-2815211129-line-3)">│</text><text class="terminal-2815211129-r6" x="12.2" y="93.2" textLength="170.8" clip-path="url(#terminal-2815211129-line-3)">&gt;&#160;mem&#160;1000&#160;255</text><text class="terminal-2815211129-r4" x="1207.8" y="93.2" textLength="12.2" clip-path="url(#terminal-2815211129-line-3)">│</text><text class="terminal-2815211129-r1" x="1220" y="93.2" textLength="12.2" clip-path="url(#terminal-2815211129-line-3)">
</text><text class="terminal-2815211129-r4" x="0" y="117.6" textLength="12.2" clip-path="url(#terminal-2815211129-line-4)">│</text><text class="terminal-2815211129-r4" x="1207.8" y="117.6" textLength="12.2" clip-path="url(#terminal-2815211129-line-4)">│</text><text class="terminal-2815211129-r1" x="1220" y="117.6" textLength="12.2" clip-path="url(#terminal-2815211129-line-4)">
</text><text class="terminal-2815211129-r4" x="0" y="142" textLength="12.2" clip-path="url(#terminal-2815211129-line-5)">│</text><text class="terminal-2815211129-r5" x="12.2" y="142" textLength="61" clip-path="url(#terminal-2815211129-line-5)">00001</text><text class="terminal-2815211129-r4" x="1207.8" y="142" textLength="12.2" clip-path="url(#terminal-2815211129-line-5)">│</text><text class="terminal-2815211129-r1" x="1220" y="142" textLength="12.2" clip-path="url(#terminal-2815211129-line-5)">
</text><text class="terminal-2815211129-r4" x="0" y="166.4" textLength="12.2" clip-path="url(#terminal-2815211129-line-6)">│</text><text class="terminal-2815211129-r5" x="12.2" y="166.4" textLength="927.2" clip-path="url(#terminal-2815211129-line-6)">000:&#160;&#160;50&#160;01&#160;C0&#160;F2&#160;&#160;00&#160;01&#160;08&#160;00&#160;&#160;1C&#160;F0&#160;60&#160;FE&#160;&#160;41&#160;F2&#160;80&#160;63&#160;&#160;|P.........`.A..c|</text><text class="terminal-2815211129-r4" x="1207.8" y="166.4" textLength="12.2" clip-path="url(#terminal-2815211129-line-6)">│</text><text class="terminal-2815211129-r1" x="1220" y="166.4" textLength="12.2" clip-path="url(#terminal-2815211129-line-6)">
</text><text class="terminal-2815211129-r4" x="0" y="190.8" textLength="12.2" clip-path="url(#terminal-2815211129-line-7)">│</text><text class="terminal-2815211129-r5" x="12.2" y="190.8" textLength="988.2" clip-path="url(#terminal-2815211129-line-7)">00001010:&#160;&#160;C2&#160;F2&#160;00&#160;03&#160;&#160;1B&#160;68&#160;40&#160;F2&#160;&#160;E8&#160;32&#160;B3&#160;FB&#160;&#160;F2&#160;F2&#160;44&#160;F2&#160;&#160;|.....h@..2....D.|</text><text class="terminal-2815211129-r4" x="1207.8" y="190.8" textLength="12.2" clip-path="url(#terminal-2815211129-line-7)">│</text><text class="terminal-2815211129-r1" x="1220" y="190.8" textLength="12.2" clip-path="url(#terminal-2815211129-line-7)">
</text><text class="terminal-2815211129-r4" x="0" y="215.2" textLength="12.2" clip-path="url(#terminal-2815211129-line-8)">│</text><text class="terminal-2815211129-r5" x="12.2" y="215.2" textLength="988.2" clip-path="url(#terminal-2815211129-line-8)">00001020:&#160;&#160;84&#160;03&#160;C0&#160;F2&#160;&#160;00&#160;03&#160;11&#160;00&#160;&#160;18&#160;00&#160;1C&#160;F0&#160;&#160;4F&#160;FE&#160;41&#160;F2&#160;&#160;|............O.A.|</text><text class="terminal-2815211129-r4" x="1207.8" y="215.2" textLength="12.2" clip-path="url(#terminal-2815211129-line-8)">│</text><text class="terminal-2815211129-r1" x="1220" y="215.2" textLength="12.2" clip-path="url(#terminal-2815211129-line-8)">
</text><text class="terminal-2815211129-r4" x="0" y="239.6" textLength="12.2" clip-path="url(#terminal-2815211129-line-9)">│</text><text class="terminal-2815211129-r5" x="12.2" y="239.6" textLength="988.2" clip-path="url(#terminal-2815211129-line-9)">00001030:&#160;&#160;AC&#160;63&#160;C2&#160;F2&#160;&#160;00&#160;03&#160;1B&#160;78&#160;&#160;DB&#160;B2&#160;1A&#160;00&#160;&#160;44&#160;F2&#160;B4&#160;03&#160;&#160;|.c.....x....D...|</text><text class="terminal-2815211129-r4" x="1207.8" y="239.6" textLength="12.2" clip-path="url(#terminal-2815211129-line-9)">│</text><text class="terminal-2815211129-r1" x="1220" y="239.6" textLength="12.2" clip-path="url(#terminal-2815211129-line-9)">
</text><text class="terminal-2815211129-r4" x="0" y="264" textLength="12.2" clip-path="url(#terminal-2815211129-line-10)">│</text><text class="terminal-2815211129-r5" x="12.2" y="264" textLength="988.2" clip-path="url(#terminal-2815211129-line-10)">00001040:&#160;&#160;C0&#160;F2&#160;00&#160;03&#160;&#160;11&#160;00&#160;18&#160;00&#160;&#160;1C&#160;F0&#160;40&#160;FE&#160;&#160;41&#160;F2&#160;AB&#160;63&#160;&#160;|..........@.A..c|</text><text class="terminal-2815211129-r4" x="1207.8" y="264" textLength="12.2" clip-path="url(#terminal-2815211129-line-10)">│</text><text class="terminal-2815211129-r1" x="1220" y="264" textLength="12.2" clip-path="url(#terminal-2815211129-line-10)">
</text><text class="terminal-2815211129-r4" x="0" y="288.4" textLength="12.2" clip-path="url(#terminal-2815211129-line-11)">│</text><text class="terminal-2815211129-r5" x="12.2" y="288.4" textLength="988.2" clip-path="url(#terminal-2815211129-line-11)">00001050:&#160;&#160;C2&#160;F2&#160;00&#160;03&#160;&#160;1B&#160;78&#160;DB&#160;B2&#160;&#160;1A&#160;00&#160;44&#160;F2&#160;&#160;E4&#160;03&#160;C0&#160;F2&#160;&#160;|.....x....D.....|</text><text class="terminal-2815211129-r4" x="1207.8" y="288.4" textLength="12.2" clip-path="url(#terminal-2815211129-line-11)">│</text><text class="terminal-2815211129-r1" x="1220" y="288.4" textLength="12.2" clip-path="url(#terminal-2815211129-line-11)">
</text><text class="terminal-2815211129-r4" x="0" y="312.8" textLength="12.2" clip-path="url(#terminal-2815211129-line-12)">│</text><text class="terminal-2815211129-r5" x="12.2" y="312.8" textLength="988.2" clip-path="url(#terminal-2815211129-line-12)">00001060:&#160;&#160;00&#160;03&#160;11&#160;00&#160;&#160;18&#160;00&#160;1C&#160;F0&#160;&#160;31&#160;FE&#160;44&#160;F2&#160;&#160;18&#160;13&#160;C0&#160;F2&#160;&#160;|........1.D.....|</text><text class="terminal-2815211129-r4" x="1207.8" y="312.8" textLength="12.2" clip-path="url(#terminal-2815211129-line-12)">│</text><text class="terminal-2815211129-r1" x="1220" y="312.8" textLength="12.2" clip-path="url(#terminal-2815211129-line-12)">
</text><text class="terminal-2815211129-r4" x="0" y="337.2" textLength="12.2" clip-path="url(#terminal-2815211129-line-13)">│</text><text class="terminal-2815211129-r5" x="12.2" y="337.2" textLength="988.2" clip-path="url(#terminal-2815211129-line-13)">00001070:&#160;&#160;00&#160;03&#160;18&#160;00&#160;&#160;1C&#160;F0&#160;2A&#160;FE&#160;&#160;1B&#160;23&#160;08&#160;22&#160;&#160;9B&#160;18&#160;DB&#160;19&#160;&#160;|......*..#.&quot;....|</text><text class="terminal-2815211129-r4" x="1207.8" y="337.2" textLength="12.2" clip-path="url(#terminal-2815211129-line-13)">│</text><text class="terminal-2815211129-r1" x="1220" y="337.2" textLength="12.2" clip-path="url(#terminal-2815211129-line-13)">
</text><text class="terminal-2815211129-r4" x="0" y="361.6" textLength="12.2" clip-path="url(#terminal-2815211129-line-14)">│</text><text class="terminal-2815211129-r5" x="12.2" y="361.6" textLength="988.2" clip-path="url(#terminal-2815211129-line-14)">00001080:&#160;&#160;02&#160;22&#160;1A&#160;70&#160;&#160;01&#160;F0&#160;93&#160;FD&#160;&#160;41&#160;F2&#160;40&#160;43&#160;&#160;C2&#160;F2&#160;00&#160;03&#160;&#160;|.&quot;.p....A.@C....|</text><text class="terminal-2815211129-r4" x="1207.8" y="361.6" textLength="12.2" clip-path="url(#terminal-2815211129-line-14)">│</text><text class="terminal-2815211129-r1" x="1220" y="361.6" textLength="12.2" clip-path="url(#terminal-2815211129-line-14)">
</text><text class="terminal-2815211129-r4" x="0" y="386" textLength="12.2" clip-path="url(#terminal-2815211129-line-15)">│</text><text class="terminal-2815211129-r5" x="12.2" y="386" textLength="988.2" clip-path="url(#terminal-2815211129-line-15)">00001090:&#160;&#160;1B&#160;88&#160;9B&#160;B2&#160;&#160;04&#160;2B&#160;01&#160;D9&#160;&#160;01&#160;F0&#160;8B&#160;FD&#160;&#160;41&#160;F2&#160;40&#160;43&#160;&#160;|.....+......A.@C|</text><text class="terminal-2815211129-r4" x="1207.8" y="386" textLength="12.2" clip-path="url(#terminal-2815211129-line-15)">│</text><text class="terminal-2815211129-r1" x="1220" y="386" textLength="12.2" clip-path="url(#terminal-2815211129-line-15)">
</text><text class="terminal-2815211129-r4" x="0" y="410.4" textLength="12.2" clip-path="url(#terminal-2815211129-line-16)">│</text><text class="terminal-2815211129-r5" x="12.2" y="410.4" textLength="988.2" clip-path="url(#terminal-2815211129-line-16)">000010A0:&#160;&#160;C2&#160;F2&#160;00&#160;03&#160;&#160;1B&#160;88&#160;9B&#160;B2&#160;&#160;DA&#160;B2&#160;41&#160;F2&#160;&#160;C4&#160;23&#160;C2&#160;F2&#160;&#160;|..........A..#..|</text><text class="terminal-2815211129-r4" x="1207.8" y="410.4" textLength="12.2" clip-path="url(#terminal-2815211129-line-16)">│</text><text class="terminal-2815211129-r1" x="1220" y="410.4" textLength="12.2" clip-path="url(#terminal-2815211129-line-16)">
</text><text class="terminal-2815211129-r4" x="0" y="434.8" textLength="12.2" clip-path="url(#terminal-2815211129-line-17)">│</text><text class="terminal-2815211129-r5" x="12.2" y="434.8" textLength="988.2" clip-path="url(#terminal-2815211129-line-17)">000010B0:&#160;&#160;00&#160;03&#160;9A&#160;72&#160;&#160;41&#160;F2&#160;40&#160;43&#160;&#160;C2&#160;F2&#160;00&#160;03&#160;&#160;1B&#160;88&#160;9B&#160;B2&#160;&#160;|...rA.@C........|</text><text class="terminal-2815211129-r4" x="1207.8" y="434.8" textLength="12.2" clip-path="url(#terminal-2815211129-line-17)">│</text><text class="terminal-2815211129-r1" x="1220" y="434.8" textLength="12.2" clip-path="url(#terminal-2815211129-line-17)">
</text><text class="terminal-2815211129-r4" x="0" y="459.2" textLength="12.2" clip-path="url(#terminal-2815211129-line-18)">│</text><text class="terminal-2815211129-r5" x="12.2" y="459.2" textLength="988.2" clip-path="url(#terminal-2815211129-line-18)">000010C0:&#160;&#160;DB&#160;B9&#160;44&#160;F2&#160;&#160;3C&#160;13&#160;C0&#160;F2&#160;&#160;00&#160;03&#160;18&#160;00&#160;&#160;1C&#160;F0&#160;FE&#160;FD&#160;&#160;|..D.&lt;...........|</text><text class="terminal-2815211129-r4" x="1207.8" y="459.2" textLength="12.2" clip-path="url(#terminal-2815211129-line-18)">│</text><text class="terminal-2815211129-r1" x="1220" y="459.2" textLength="12.2" clip-path="url(#terminal-2815211129-line-18)">
</text><text class="terminal-2815211129-r4" x="0" y="483.6" textLength="12.2" clip-path="url(#terminal-2815211129-line-19)">│</text><text class="terminal-2815211129-r5" x="12.2" y="483.6" textLength="988.2" clip-path="url(#terminal-2815211129-line-19)">000010D0:&#160;&#160;44&#160;F2&#160;74&#160;13&#160;&#160;C0&#160;F2&#160;00&#160;03&#160;&#160;18&#160;00&#160;1C&#160;F0&#160;&#160;F7&#160;FD&#160;44&#160;F2&#160;&#160;|D.t...........D.|</text><text class="terminal-2815211129-r4" x="1207.8" y="483.6" textLength="12.2" clip-path="url(#terminal-2815211129-line-19)">│</text><text class="terminal-2815211129-r1" x="1220" y="483.6" textLength="12.2" clip-path="url(#terminal-2815211129-line-19)">
</text><text class="terminal-2815211129-r4" x="0" y="508" textLength="12.2" clip-path="url(#terminal-2815211129-line-20)">│</text><text class="terminal-2815211129-r5" x="12.2" y="508" textLength="988.2" clip-path="url(#terminal-2815211129-line-20)">000010E0:&#160;&#160;A8&#160;13&#160;C0&#160;F2&#160;&#160;00&#160;03&#160;18&#160;00&#160;&#160;1C&#160;F0&#160;F0&#160;FD&#160;&#160;44&#160;F2&#160;DC&#160;13&#160;&#160;|............D...|</text><text class="terminal-2815211129-r4" x="1207.8" y="508" textLength="12.2" clip-path="url(#terminal-2815211129-line-20)">│</text><text class="terminal-2815211129-r1" x="1220" y="508" textLength="12.2" clip-path="url(#terminal-2815211129-line-20)">
</text><text class="terminal-2815211129-r4" x="0" y="532.4" textLength="12.2" clip-path="url(#terminal-2815211129-line-21)">│</text><text class="terminal-2815211129-r5" x="12.2" y="532.4" textLength="976" clip-path="url(#terminal-2815211129-line-21)">000010F0:&#160;&#160;C0&#160;F2&#160;00&#160;03&#160;&#160;18&#160;00&#160;1C&#160;F0&#160;&#160;E9&#160;FD&#160;41&#160;F2&#160;&#160;7C&#160;43&#160;C2&#160;&#160;&#160;&#160;&#160;|..........A.|C.|</text><text class="terminal-2815211129-r4" x="1207.8" y="532.4" textLength="12.2" clip-path="url(#terminal-2815211129-line-21)">│</text><text class="terminal-2815211129-r1" x="1220" y="532.4" textLength="12.2" clip-path="url(#terminal-2815211129-line-21)">
</text><text class="terminal-2815211129-r4" x="0" y="556.8" textLength="12.2" clip-path="url(#terminal-2815211129-line-22)">│</text><text class="terminal-2815211129-r7" x="12.2" y="556.8" textLength="122" clip-path="url(#terminal-2815211129-line-22)">&gt;&#160;!!ss_svg</text><text class="terminal-2815211129-r4" x="1207.8" y="556.8" textLength="12.2" clip-path="url(#terminal-2815211129-line-22)">│</text><text class="terminal-2815211129-r1" x="1220" y="556.8" textLength="12.2" clip-path="url(#terminal-2815211129-line-22)">
</text><text class="terminal-2815211129-r4" x="0" y="581.2" textLength="12.2" clip-path="url(#terminal-2815211129-line-23)">│</text><text class="terminal-2815211129-r4" x="1207.8" y="581.2" textLength="12.2" clip-path="url(#terminal-2815211129-line-23)">│</text><text class="terminal-2815211129-r1" x="1220" y="581.2" textLength="12.2" clip-path="url(#terminal-2815211129-line-23)">
</text><text class="terminal-2815211129-r4" x="0" y="605.6" textLength="12.2" clip-path="url(#terminal-2815211129-line-24)">│</text><text class="terminal-2815211129-r4" x="1207.8" y="605.6" textLength="12.2" clip-path="url(#terminal-2815211129-line-24)">│</text><text class="terminal-2815211129-r1" x="1220" y="605.6" textLength="12.2" clip-path="url(#terminal-2815211129-line-24)">
</text><text class="terminal-2815211129-r4" x="0" y="630" textLength="12.2" clip-path="url(#terminal-2815211129-line-25)">│</text><text class="terminal-2815211129-r4" x="1207.8" y="630" textLength="12.2" clip-path="url(#terminal-2815211129-line-25)">│</text><text class="terminal-2815211129-r1" x="1220" y="630" textLength="12.2" clip-path="url(#terminal-2815211129-line-25)">
</text><text class="terminal-2815211129-r4" x="0" y="654.4" textLength="12.2" clip-path="url(#terminal-2815211129-line-26)">│</text><text class="terminal-2815211129-r4" x="1207.8" y="654.4" textLength="12.2" clip-path="url(#terminal-2815211129-line-26)">│</text><text class="terminal-2815211129-r1" x="1220" y="654.4" textLength="12.2" clip-path="url(#terminal-2815211129-line-26)">
</text><text class="terminal-2815211129-r4" x="0" y="678.8" textLength="12.2" clip-path="url(#terminal-2815211129-line-27)">│</text><text class="terminal-2815211129-r4" x="1207.8" y="678.8" textLength="12.2" clip-path="url(#terminal-2815211129-line-27)">│</text><text class="terminal-2815211129-r1" x="1220" y="678.8" textLength="12.2" clip-path="url(#terminal-2815211129-line-27)">
</text><text class="terminal-2815211129-r4" x="0" y="703.2" textLength="12.2" clip-path="url(#terminal-2815211129-line-28)">│</text><text class="terminal-2815211129-r4" x="1207.8" y="703.2" textLength="12.2" clip-path="url(#terminal-2815211129-line-28)">│</text><text class="terminal-2815211129-r1" x="1220" y="703.2" textLength="12.2" clip-path="url(#terminal-2815211129-line-28)">
</text><text class="terminal-2815211129-r4" x="0" y="727.6" textLength="12.2" clip-path="url(#terminal-2815211129-line-29)">│</text><text class="terminal-2815211129-r4" x="1207.8" y="727.6" textLength="12.2" clip-path="url(#terminal-2815211129-line-29)">│</text><text class="terminal-2815211129-r1" x="1220" y="727.6" textLength="12.2" clip-path="url(#terminal-2815211129-line-29)">
</text><text class="terminal-2815211129-r4" x="0" y="752" textLength="12.2" clip-path="url(#terminal-2815211129-line-30)">└</text><text class="terminal-2815211129-r4" x="12.2" y="752" textLength="1195.6" clip-path="url(#terminal-2815211129-line-30)">──────────────────────────────────────────────────────────────────────────────────────────────────</text><text class="terminal-2815211129-r4" x="1207.8" y="752" textLength="12.2" clip-path="url(#terminal-2815211129-line-30)">┘</text><text class="terminal-2815211129-r1" x="1220" y="752" textLength="12.2" clip-path="url(#terminal-2815211129-line-30)">
</text><text class="terminal-2815211129-r2" x="12.2" y="776.4" textLength="48.8" clip-path="url(#terminal-2815211129-line-31)">&#160;!!&#160;</text><text class="terminal-2815211129-r5" x="85.4" y="776.4" textLength="97.6" clip-path="url(#terminal-2815211129-line-31)">!!ss_svg</text><text class="terminal-2815211129-r2" x="1012.6" y="776.4" textLength="61" clip-path="url(#terminal-2815211129-line-31)">&#160;Log&#160;</text><text class="terminal-2815211129-r2" x="1085.8" y="776.4" textLength="48.8" clip-path="url(#terminal-2815211129-line-31)">&#160;SS&#160;</text><text class="terminal-2815211129-r2" x="1146.8" y="776.4" textLength="73.2" clip-path="url(#terminal-2815211129-line-31)">&#160;Exit&#160;</text>
    </g>
    </g>
</svg>
